<svg xmlns="http://www.w3.org/2000/svg" xmlns:xlink="http://www.w3.org/1999/xlink" width="290" height="74" viewBox="0 0 290 74">
    <defs>
        <path id="a" d="M.663 27.965c-1.156 9.276-.8 18.577 1.066 27.837.624 3.093 1.5 6.285 5.633 8.995 8.17 5.36 26.442 7.345 43.096 8.2 31.152 1.6 62.802.959 94.21.315l73.685-1.51c15.885-.325 31.78-.651 47.582-1.323 4.581-.194 9.333-.441 13.184-1.367 7.984-1.919 9.301-5.925 9.723-9.408 2.066-17.103 1.367-34.25-2.095-51.322-.266-1.314-.582-2.673-2.298-3.834-4.356-2.95-15.27-3.38-24.456-3.449l-110.08-.82c-45.303-.338-90.736-.673-135.827.957-3.403.123-7.156.323-9.35 1.278-1.75.763-2.059 1.822-2.277 2.813C.565 13.918-.104 22.547.453 31.163"/>
    </defs>
    <use fill="#2CC9B3" fill-rule="evenodd" xlink:href="#a"/>
</svg>
