<svg xmlns="http://www.w3.org/2000/svg" width="100" height="54" viewBox="0 0 100 54">
    <g fill="#4A4A4A" fill-rule="evenodd">
        <path d="M34.39 38.666c1.319 1.617 2.754 2.438 4.263 2.438 2.576 0 4.457-2.465 4.64-3.317l.047-.217-.113-.193c-.11-.188-.745-1.17-1.636-1.06-.315.04-.553.259-.915.59-.52.475-1.23 1.127-2.079 1.127-.531 0-1.09-.266-1.663-.79-1.42-1.302-4.574-11.898-9.375-31.49-.414-1.688-.584-2.38-.635-2.532-.166-.496-.616-.804-1.176-.804-.51 0-1.046.253-1.364.644-.261.323-.36.713-.278 1.097.254 1.205 6.26 29.57 10.284 34.507"/>
        <path d="M38.321 19.708a.675.675 0 0 1 .267-.046c.884 0 2.84 1.077 4.563 5.116 2.05 4.805 1.087 7.495.656 7.772-.789 0-3.373-2.064-4.8-6.066-1.962-5.507-1.133-6.573-.686-6.776m5.407 15.755h.001c.493 0 .96-.089 1.389-.265.745-.306 1.35-.997 1.747-2 .864-2.184.569-5.302-.79-8.341-1.717-3.838-3.826-7.932-7.144-7.932a4.67 4.67 0 0 0-1.61.304c-.643.237-1.164.784-1.509 1.58-.965 2.237-.504 6.278 1.173 10.296 2.395 5.738 5.514 6.358 6.743 6.358M22.123 31.304a.763.763 0 0 1 .287-.088c.972-.128 3.28.74 5.767 4.81 2.958 4.841 2.391 8.319 1.958 8.677-1.478 1.443-4.48-.705-6.635-4.779-2.964-5.604-1.84-8.338-1.377-8.62m9.28 4.381c-2.448-3.855-5.367-7.927-9.017-7.445a5.272 5.272 0 0 0-1.726.559c-.672.347-1.166 1.007-1.428 1.91-.348 1.202-.28 2.795.146 4.569C15.03 29.318 9.477 21.17 3.99 12.36c-.921-1.48-1.299-2.085-1.395-2.214-.314-.421-.843-.578-1.382-.408a1.825 1.825 0 0 0-1.115 1.025c-.152.386-.126.787.072 1.126.617 1.07 19.823 31.773 25.228 35.247 1.772 1.138 3.408 1.483 4.863 1.025 2.482-.78 3.53-3.692 3.443-4.557l-.022-.222-.005-.005c.196-2.292-.612-5.079-2.273-7.693M48.912 16.386a.549.549 0 0 1 .187-.028c.815 0 2.734 1.124 4.162 5.376 1.633 4.864.47 7.415.039 7.651-.596 0-3.085-1.97-4.256-6.32-1.49-5.542-.589-6.517-.132-6.68m4.383 15.854c.371 0 .73-.054 1.067-.16.758-.238 1.409-.865 1.88-1.813 1.026-2.064.986-5.136-.109-8.218-1.434-4.038-3.256-8.347-6.737-8.347-.409 0-.836.061-1.27.18-.653.18-1.21.672-1.613 1.423-1.13 2.108-1 6.095.33 10.16 2.057 6.286 5.458 6.774 6.452 6.775M80.01 8.03c1.052-.551 1.052-5.92 1.052-6.392 0-.471-.356-1.638-1.537-1.638-.643 0-.895.613-.87 1.156 0 0 .305 7.426 1.355 6.874M96.86 31.687c-.954.554-6.78 9.409-24.742 16.82-17.963 7.41-35.134 1.107-35.134 1.107-.481-.191-1.293-.91-2.216-.9-.923.009-2.437 1.622 1.61 2.77 4.046 1.147 18.41 5.379 35.651-.64 17.242-6.018 25.732-17.586 25.854-18.447.122-.862-.067-1.263-1.022-.71M56.969 17.611c.592 2.795 1.7 7.015 1.812 7.879.145 1.106.579 1.728 1.809 1.658 1.23-.068 1.374-1.244 1.374-1.244s-1.542-6.575-1.686-8.095c-.145-1.52.144-3.179 1.88-2.626 1.736.553 2.037 6.634 2.616 9.153.578 2.52 2.325 1.267 2.145.065-.105-.705-.276-2.377-.665-6.385a9.826 9.826 0 0 1-.042-1.302l-.002-.016c-.022-1.05.311-3.215 1.768-3.654 1.455-.438 1.714.81 1.714.81l-.001.004c.108.243.207.541.293.924.58 2.62 1.456 6.854 1.462 6.881.43 1.578.9 3.035 1.417 4.023 1.808 3.455 5.28 2.695 6.655 1.61 1.374-1.087.65-2.646-.651-1.679-1.303.968-4.05 1.244-5.136-4.768-1.085-6.011-1.591-10.572-4.918-10.365-3.328.207-4.847 3.939-4.847 3.939s-1.446-2.004-2.82-1.664c-.965.24-1.535 1.333-1.79 1.966-.482-1.25-1.286-1.68-1.966-1.68-1.598-.001-1.151 1.371-1.151 1.371l.73 3.195zM87.574 10.285c-.473-.416-.86-.935-1.161-1.423-.786-1.275-.5-3.896.358-4.25.687-.284 1.05 2.07.803 5.673m11.134 16.52c-4.571-2.906-1.43-13.338-2.573-15.605-1.144-2.267-3.574-.992-5.576-.283a3.1 3.1 0 0 1-.798.17c.499-4.527.285-9.108-2.633-9.45-4.218-.497-4.503 6.729-1.572 9.705.54.549 1.155.935 1.797 1.201-.026.212-.052.423-.082.64-.715 5.172-4.503 9.919-4.503 9.919-.56.759 1.358 1.558 2.072 1.345.716-.212 2.931-2.48 4.003-7.721.224-1.091.462-2.36.661-3.689 2.15.17 4.058-.491 4.058-.491s-.43 3.542-.215 7.155c.215 3.613.232 7.605 4.146 9.139 1.88.736 2.807-1.023 1.215-2.035"/>
    </g>
</svg>
