<svg xmlns="http://www.w3.org/2000/svg" width="80" height="68" viewBox="0 0 80 68">
    <g fill="none" fill-rule="evenodd">
        <path fill="#EE7C06" d="M.807 44.483C5.217 59.496 18.67 67.532 38.04 67.532c19.372 0 36.846-7.088 40.53-21.431C82.251 31.758 77.733 3.46 43.846.225 9.961-3.01-3.603 29.47.807 44.483z"/>
        <g fill="#FFF">
            <path d="M29.233 45.398c.837 1.013 1.747 1.527 2.705 1.527 1.634 0 2.827-1.543 2.944-2.077l.03-.136-.072-.121c-.07-.118-.473-.733-1.039-.663-.199.024-.35.161-.58.368-.33.298-.78.707-1.319.707-.337 0-.692-.167-1.055-.495-.9-.816-2.902-7.451-5.948-19.72-.263-1.058-.37-1.49-.403-1.586-.105-.311-.39-.504-.746-.504-.324 0-.663.158-.865.403a.8.8 0 0 0-.177.687c.161.755 3.972 18.519 6.525 21.61"/>
            <path d="M31.693 33.89a.44.44 0 0 1 .17-.03c.562 0 1.808.668 2.905 3.17 1.305 2.978.692 4.645.418 4.817-.502 0-2.148-1.28-3.056-3.759-1.25-3.412-.722-4.073-.437-4.199m3.443 9.762c.314 0 .611-.055.884-.164.475-.19.86-.618 1.113-1.24.55-1.352.362-3.284-.503-5.167-1.093-2.378-2.436-4.915-4.549-4.915-.332 0-.677.064-1.025.188-.41.147-.742.486-.96.98-.615 1.386-.322 3.89.746 6.379 1.525 3.555 3.511 3.939 4.294 3.939M21.535 40.821a.478.478 0 0 1 .18-.055c.61-.081 2.057.464 3.616 3.018 1.856 3.038 1.5 5.22 1.228 5.445-.926.906-2.81-.442-4.16-2.999-1.86-3.517-1.154-5.232-.864-5.409m5.82 2.749c-1.536-2.419-3.366-4.974-5.655-4.672-.36.048-.724.165-1.083.35-.422.219-.731.633-.895 1.2-.219.754-.176 1.753.09 2.866-2.726-3.74-6.209-8.852-9.65-14.38-.578-.929-.815-1.309-.875-1.39-.197-.264-.529-.362-.867-.256-.308.097-.582.35-.699.644a.796.796 0 0 0 .045.706c.387.67 12.433 19.939 15.822 22.118 1.112.714 2.138.93 3.05.644 1.557-.49 2.214-2.317 2.16-2.86l-.014-.14-.003-.002c.123-1.439-.384-3.188-1.426-4.828M38.35 31.524a.36.36 0 0 1 .12-.017c.525 0 1.762.71 2.682 3.396 1.053 3.073.303 4.684.025 4.834-.383 0-1.988-1.245-2.742-3.993-.96-3.501-.38-4.117-.086-4.22m2.825 10.015c.24 0 .47-.034.688-.1.489-.15.908-.547 1.212-1.146.661-1.304.635-3.244-.07-5.191-.925-2.552-2.1-5.273-4.342-5.273-.264 0-.54.038-.82.114-.42.113-.779.424-1.038.898-.728 1.332-.645 3.85.212 6.418 1.326 3.972 3.518 4.28 4.158 4.28M58.494 26.56c.586-.362.586-3.895.586-4.205 0-.31-.198-1.078-.857-1.078-.359 0-.5.403-.485.76 0 0 .17 4.887.756 4.524M68.944 41.25c-.605.35-4.296 5.965-15.676 10.664-11.38 4.699-22.258.702-22.258.702-.306-.121-.82-.577-1.405-.57-.585.005-1.544 1.028 1.02 1.755 2.564.728 11.664 3.411 22.587-.405s16.302-11.15 16.38-11.697c.077-.546-.043-.8-.648-.45M43.885 32.585c.369 1.793 1.06 4.5 1.13 5.055.09.71.36 1.108 1.128 1.064.766-.044.857-.798.857-.798s-.962-4.219-1.052-5.194c-.09-.975.09-2.04 1.172-1.685 1.083.355 1.27 4.256 1.632 5.873.36 1.617 1.45.812 1.338.042-.066-.453-.173-1.526-.415-4.097a6.485 6.485 0 0 1-.027-.835V32c-.014-.674.193-2.063 1.102-2.345.908-.281 1.07.52 1.07.52l-.002.002c.067.156.13.347.183.593.362 1.68.908 4.397.911 4.415.27 1.012.562 1.947.884 2.58 1.128 2.218 3.293 1.73 4.15 1.033.857-.697.406-1.697-.406-1.076-.812.62-2.526.797-3.202-3.06-.677-3.856-.993-6.782-3.068-6.65-2.075.134-3.022 2.528-3.022 2.528s-.902-1.286-1.76-1.068c-.6.154-.956.855-1.115 1.261-.3-.801-.802-1.077-1.226-1.078-.996 0-.718.88-.718.88l.456 2.05zM63.078 28.015a3.954 3.954 0 0 1-.732-.89c-.496-.798-.316-2.438.226-2.66.433-.177.663 1.296.506 3.55m7.027 10.339c-2.885-1.819-.902-8.347-1.624-9.766-.722-1.418-2.256-.62-3.519-.177a1.97 1.97 0 0 1-.503.107c.315-2.833.18-5.7-1.662-5.915-2.661-.31-2.841 4.212-.992 6.074.341.344.73.585 1.134.752-.016.133-.033.265-.052.4-.45 3.237-2.841 6.207-2.841 6.207-.353.475.857.975 1.308.842.451-.133 1.85-1.551 2.526-4.832.14-.682.29-1.476.417-2.308a7.12 7.12 0 0 0 2.56-.308s-.27 2.217-.136 4.478c.136 2.261.147 4.76 2.617 5.719 1.186.46 1.771-.64.767-1.273"/>
        </g>
    </g>
</svg>
