<svg xmlns="http://www.w3.org/2000/svg" xmlns:xlink="http://www.w3.org/1999/xlink" width="130" height="63" viewBox="0 0 130 63">
    <defs>
        <path id="a" d="M.034.306h2.862v6.747H.034z"/>
        <path id="c" d="M.009.145h18.509V19.22H.008z"/>
    </defs>
    <g fill="none" fill-rule="evenodd">
        <path fill="#1A0475" d="M18.065 18.517l-.068-.047.038-.073c.582-1.104.903-2.326.903-3.439 0-2.478-.913-4.554-2.64-6.003-1.597-1.34-3.783-2.048-6.321-2.048H1.39c-.729 0-1.338.545-1.388 1.242-.007.107.001.212.018.315-.011.07-.02.14-.02.212v14.477a1.43 1.43 0 1 0 2.86 0v-3.107a4.95 4.95 0 0 1 .386-.016H10.1c.191 0 .377-.01.564-.018h.099c5.095 0 6.537 1.385 6.936 2.048.302.612.454 1.35.454 2.223-.002 3.918-2.515 5.823-7.685 5.823H9.344c-.021 0-.042.003-.063.006l-.061.006c-.013 0-.025-.002-.053-.005h-1.57c-.73 0-1.34.545-1.388 1.242a1.343 1.343 0 0 0 1.334 1.433h1.665l.045-.004.064-.006c.014 0 .028.002.042.004.011.002.023.003.034.003h.719c.043.005.087.008.131.008h.226c6.587 0 10.365-3.1 10.365-8.514 0-2.525-.958-4.517-2.769-5.762"/>
        <path fill="#1A0475" d="M9.526 32.792l-.07-.004h-.248c-.014.002-.027.004-.041.004h.36z"/>
        <path fill="#F4DF19" d="M48.914 53.84c-.69 0-1.255-.565-1.255-1.255V37.9c0-.69.565-1.254 1.255-1.254s1.254.565 1.254 1.254v14.684c0 .69-.565 1.254-1.254 1.254"/>
        <g transform="translate(25.73 2.004)">
            <mask id="b" fill="#fff">
                <use xlink:href="#a"/>
            </mask>
            <path fill="#F4DF19" d="M1.465.306C.678.306.034.95.034 1.736v3.886c0 .787.644 1.43 1.43 1.43.788 0 1.432-.643 1.432-1.43V1.737C2.896.95 2.252.306 1.465.306" mask="url(#b)"/>
        </g>
        <path fill="#F4DF19" d="M2.452 30.02c-.776 0-1.412.645-1.412 1.433s.636 1.432 1.412 1.432h.437c.777 0 1.412-.644 1.412-1.432 0-.788-.635-1.433-1.412-1.433h-.437zM126.9 33.682a1.427 1.427 0 0 0-1.93-.566 1.426 1.426 0 0 0-.595 1.922l.207.385a1.427 1.427 0 0 0 1.93.566 1.426 1.426 0 0 0 .594-1.922l-.206-.385z"/>
        <path fill="#1A0475" d="M125.731 13.461v-.072c0-5-3.767-8.042-9.49-8.042h-8.188c-.72 0-1.304.584-1.304 1.304v23.71c0 .792.642 1.435 1.435 1.435l.01-.001.01.001c.385 0 .734-.159.987-.414.264-.26.428-.621.428-1.021v-3.104c0-.03-.006-.058-.008-.087v-3.326-.783c0-.72.584-1.304 1.304-1.304h4.854c.466 0 .926-.023 1.377-.065l4.833 9.261a1.395 1.395 0 0 0 2.547-1.127l-4.545-8.716c3.363-1.121 5.75-3.693 5.75-7.649M100.718 2.925a1.89 1.89 0 0 0-2.04.782L91.086 15.08c-.234.351-.597.541-.971.574a1.29 1.29 0 0 1-.97-.574L81.554 3.707a1.89 1.89 0 0 0-2.04-.782c-.847.214-1.419 1.01-1.419 1.884v14.71a1.395 1.395 0 0 0 2.79 0V9.515c0-.545.704-.762 1.011-.312l7.578 11.114h.007a.798.798 0 0 0 .636.318c.26 0 .488-.126.635-.318h.008l7.577-11.114c.307-.45 1.011-.233 1.011.312v19.249a1.395 1.395 0 1 0 2.79 0V4.809c0-.874-.572-1.67-1.42-1.884M43.85 18.31a6.17 6.17 0 0 1-2.331-.983 6.247 6.247 0 0 1-1.742-1.87c-.47-.766-.807-1.66-1-2.66-.191-.998-.21-1.954-.057-2.84a6.254 6.254 0 0 1 .924-2.383 6.177 6.177 0 0 1 1.8-1.777c.737-.481 1.598-.82 2.56-1.004.962-.185 1.887-.19 2.75-.017.86.174 1.645.505 2.331.983a6.423 6.423 0 0 1 1.755 1.87c.48.764.82 1.657 1.011 2.655.192.998.207 1.953.046 2.84a6.407 6.407 0 0 1-.937 2.387 6.175 6.175 0 0 1-1.8 1.778c-.736.48-1.598.819-2.56 1.004-.963.185-1.889.19-2.75.016m10.39-8.485c-.252-1.313-.704-2.493-1.343-3.507a8.355 8.355 0 0 0-2.372-2.484 8.49 8.49 0 0 0-3.187-1.294c-1.18-.226-2.445-.212-3.76.04-1.315.253-2.49.709-3.494 1.355a8.503 8.503 0 0 0-2.467 2.38 8.327 8.327 0 0 0-1.282 3.188c-.217 1.178-.199 2.441.054 3.755.252 1.313.704 2.493 1.342 3.507a8.452 8.452 0 0 0 2.374 2.496 8.251 8.251 0 0 0 3.177 1.297c1.17.219 2.43.202 3.743-.05 1.313-.253 2.493-.705 3.508-1.343a8.247 8.247 0 0 0 2.482-2.386 8.465 8.465 0 0 0 1.278-3.199c.218-1.178.2-2.44-.053-3.755M63.594 18.31a6.164 6.164 0 0 1-2.33-.984 6.249 6.249 0 0 1-1.742-1.87c-.471-.765-.808-1.66-1-2.658-.192-.999-.211-1.955-.057-2.841a6.259 6.259 0 0 1 .923-2.383 6.178 6.178 0 0 1 1.8-1.777c.737-.481 1.598-.82 2.56-1.004.962-.185 1.888-.19 2.75-.017.861.174 1.645.505 2.331.983a6.427 6.427 0 0 1 1.756 1.87c.479.764.819 1.657 1.01 2.654.193.999.208 1.954.046 2.841a6.407 6.407 0 0 1-.937 2.387 6.173 6.173 0 0 1-1.8 1.778c-.736.48-1.597.819-2.56 1.004-.963.185-1.888.19-2.75.016m10.391-8.485c-.253-1.313-.705-2.493-1.343-3.507a8.344 8.344 0 0 0-2.372-2.484 8.494 8.494 0 0 0-3.188-1.294c-1.18-.226-2.445-.212-3.759.04-1.315.253-2.49.709-3.494 1.355a8.51 8.51 0 0 0-2.468 2.38 8.33 8.33 0 0 0-1.281 3.188c-.217 1.178-.2 2.441.053 3.755.253 1.313.704 2.493 1.343 3.506a8.452 8.452 0 0 0 2.373 2.497 8.253 8.253 0 0 0 3.178 1.297c1.17.219 2.43.202 3.743-.05 1.313-.253 2.493-.705 3.507-1.343a8.247 8.247 0 0 0 2.483-2.386 8.466 8.466 0 0 0 1.278-3.199c.217-1.178.2-2.44-.053-3.755"/>
        <path fill="#F4DF19" d="M47.687 58.274c0 .678.555 1.233 1.233 1.233s1.233-.555 1.233-1.233v-.381c0-.679-.555-1.233-1.233-1.233s-1.233.554-1.233 1.233v.381zM22.923 53.69a1.237 1.237 0 0 1-1.233-1.232V47.34c0-.678.555-1.232 1.233-1.232.679 0 1.233.554 1.233 1.232v5.117c0 .678-.554 1.233-1.233 1.233"/>
        <path fill="#1A0475" d="M41.723 34.759a1.674 1.674 0 0 0-1.806.691l-6.723 10.382c-.207.31-.528.48-.86.507a1.143 1.143 0 0 1-.858-.507L24.753 35.76a1.674 1.674 0 0 0-1.806-.691c-.75.189-1.257.894-1.257 1.668v13.22a1.235 1.235 0 0 0 2.47 0v-9.053a.49.49 0 0 1 .895-.275l6.71 9.841h.007c.13.17.333.281.563.281.23 0 .433-.111.563-.28h.007l6.71-10.152a.49.49 0 0 1 .895.275v17.427a1.235 1.235 0 0 0 2.47 0V36.427c0-.774-.506-1.48-1.257-1.668"/>
        <path fill="#1A0475" d="M22.628 51.194a1.234 1.234 0 0 0 1.528-1.127v-2.686c0-.678-.554-1.233-1.233-1.233-.678 0-1.233.555-1.233 1.233v2.614c0 .568.387 1.063.938 1.2M41.803 49.863h-.112a1.18 1.18 0 0 1-1.177-1.177c0-.648.53-1.177 1.177-1.177h.112c.647 0 1.177.53 1.177 1.177a1.18 1.18 0 0 1-1.177 1.177"/>
        <path fill="#F4DF19" d="M119.73 53.538c0 .635-.52 1.154-1.155 1.154h-2.793c-.635 0-1.154-.519-1.154-1.154 0-.635.52-1.154 1.154-1.154h2.793c.635 0 1.155.52 1.155 1.154"/>
        <path fill="#2797A3" d="M48.914 49.27c-.69 0-1.255-.564-1.255-1.254V33.333c0-.69.565-1.254 1.255-1.254s1.254.564 1.254 1.254v14.683c0 .69-.565 1.254-1.254 1.254"/>
        <path fill="#1A0475" d="M72.444 36.605c-.69 0-1.254-.564-1.254-1.254v-.388c0-.69.564-1.255 1.254-1.255.69 0 1.254.565 1.254 1.255v.388c0 .69-.565 1.254-1.254 1.254M15.984 37.429h-.223c-.63 0-1.142.511-1.142 1.143v12.056c0 .69.564 1.253 1.254 1.253.69 0 1.254-.564 1.254-1.254V38.572c0-.632-.512-1.143-1.143-1.143M55.978 25.029h-7.176c-.63 0-1.143.511-1.143 1.143v14.445c0 .63.512 1.143 1.143 1.143h.223c.63 0 1.143-.512 1.143-1.143v-.064c0-.63.511-1.142 1.143-1.142h4.254c4.73 0 8.73-2.477 8.73-7.271v-.064c0-4.38-3.301-7.047-8.317-7.047M79.441 30.744h.222c.632 0 1.143.512 1.143 1.143v25.235c0 .63.512 1.143 1.143 1.143h10.223c.631 0 1.143.512 1.143 1.143v.031c0 .632-.512 1.143-1.143 1.143h-12.73a1.143 1.143 0 0 1-1.144-1.143V31.887c0-.631.512-1.143 1.143-1.143"/>
        <path fill="#1A0475" d="M87.61 51.927l.07-.083a1.097 1.097 0 0 1 1.524-.142c1.934 1.54 3.885 2.31 6.465 2.31 2.852 0 4.733-1.518 4.733-3.611v-.06c0-1.973-1.062-3.096-5.522-4.036-4.884-1.062-7.13-2.64-7.13-6.128v-.061c0-3.337 2.943-5.795 6.979-5.795 2.655 0 4.663.648 6.54 1.925.517.351.637 1.064.26 1.563l-.078.103a1.09 1.09 0 0 1-1.487.244c-1.698-1.166-3.419-1.68-5.296-1.68-2.761 0-4.52 1.516-4.52 3.427v.061c0 2.002 1.092 3.125 5.764 4.126 4.733 1.032 6.917 2.761 6.917 6.007v.061c0 3.64-3.034 6.007-7.251 6.007-2.983 0-5.49-.88-7.795-2.663a1.095 1.095 0 0 1-.172-1.575M107.704 35.879h10.058a1.143 1.143 0 0 1 0 2.285h-7.55c-.631 0-1.143.512-1.143 1.143v2.822c0 .632.512 1.143 1.143 1.143h3.868a1.143 1.143 0 1 1 0 2.286h-3.868c-.631 0-1.143.512-1.143 1.143v4.563c0 .63.512 1.142 1.143 1.142h1.212a1.143 1.143 0 0 1 0 2.286h-3.72a1.143 1.143 0 0 1-1.143-1.143V37.022c0-.632.512-1.143 1.143-1.143M72.444 51.914c-.69 0-1.254-.564-1.254-1.254v-9.724c0-.69.564-1.254 1.254-1.254.69 0 1.254.565 1.254 1.254v9.724c0 .69-.565 1.254-1.254 1.254"/>
        <g transform="translate(55.18 41.684)">
            <mask id="d" fill="#fff">
                <use xlink:href="#c"/>
            </mask>
            <path fill="#1A0475" d="M18.518 1.289c0-.631-.512-1.144-1.143-1.144h-.222c-.631 0-1.143.513-1.143 1.144v7.687c0 4.858-2.603 7.334-6.699 7.334-4.254 0-6.794-2.699-6.794-7.493v-3.87c0-.63-.512-1.143-1.143-1.143H1.15c-.63 0-1.142.513-1.142 1.144v4.028c0 6.286 3.746 9.652 9.238 9.652 2.804 0 5.138-.859 6.763-2.54v1.878c0 .69.564 1.254 1.254 1.254.69 0 1.254-.564 1.254-1.254V9.482c0-.036-.008-.069-.01-.104.006-.194.01-.392.01-.593V1.29z" mask="url(#d)"/>
        </g>
        <path fill="#226092" d="M46.915 19.318a1.14 1.14 0 0 0-1.193-.923 6.77 6.77 0 0 1-1.79-.112 6.225 6.225 0 0 1-2.355-.994 6.312 6.312 0 0 1-1.76-1.89c-.477-.774-.817-1.678-1.011-2.688-.194-1.01-.214-1.976-.058-2.872a6.61 6.61 0 0 1 .43-1.469c.24-.563.057-1.217-.463-1.54a1.223 1.223 0 0 0-1.762.55 8.802 8.802 0 0 0-.616 2c-.22 1.19-.201 2.467.054 3.795.255 1.329.712 2.521 1.357 3.545a8.543 8.543 0 0 0 2.4 2.524 8.353 8.353 0 0 0 3.212 1.312c.804.15 1.65.19 2.526.12a1.145 1.145 0 0 0 1.03-1.358M66.66 19.318a1.14 1.14 0 0 0-1.193-.923 6.77 6.77 0 0 1-1.79-.112 6.223 6.223 0 0 1-2.355-.994 6.317 6.317 0 0 1-1.76-1.89c-.477-.774-.818-1.678-1.012-2.688-.194-1.01-.213-1.976-.058-2.872.09-.518.234-1.01.431-1.469.24-.563.057-1.217-.464-1.54a1.223 1.223 0 0 0-1.762.55 8.787 8.787 0 0 0-.616 2c-.22 1.19-.2 2.467.054 3.795.256 1.329.713 2.521 1.358 3.545a8.548 8.548 0 0 0 2.4 2.524 8.351 8.351 0 0 0 3.211 1.312c.804.15 1.65.19 2.526.12a1.146 1.146 0 0 0 1.03-1.358"/>
        <path fill="#F29F1C" d="M34.128 34.586a1.362 1.362 0 1 1-2.724 0 1.362 1.362 0 0 1 2.724 0M73.805 26.839a1.362 1.362 0 1 1-2.723 0 1.362 1.362 0 0 1 2.723 0M91.442 26.839a1.362 1.362 0 1 1-2.724 0 1.362 1.362 0 0 1 2.724 0M65.847 51.539a1.362 1.362 0 1 1-2.723 0 1.362 1.362 0 0 1 2.723 0"/>
        <path fill="#226092" d="M1.428 18.402c.786 0 1.428.642 1.428 1.428v3.317c0 .785-.642 1.428-1.428 1.428A1.432 1.432 0 0 1 0 23.147V19.83c0-.786.643-1.428 1.428-1.428"/>
        <path fill="#2AB3AC" d="M1.428 19.99c.786 0 1.428.642 1.428 1.427 0 .786-.642 1.428-1.428 1.428A1.432 1.432 0 0 1 0 21.417c0-.785.643-1.428 1.428-1.428"/>
        <path fill="#2797A3" d="M73.717 46.972V44.98c0-.071-.008-.14-.02-.21v-3.835c0-.69-.564-1.254-1.253-1.254-.69 0-1.254.565-1.254 1.254v6.624c0 .048.009.093.014.14v2.94c0 4.867-2.608 7.349-6.713 7.349-4.263 0-6.808-2.704-6.808-7.508v-1.637a1.257 1.257 0 0 0-2.514 0v1.796c0 6.3 3.755 9.672 9.258 9.672 5.484 0 9.174-3.273 9.285-9.572.003-.033.005-.066.005-.1v-.182V46.975v-.003"/>
        <path fill="#2CC9B3" d="M72.463 48.814c-.69 0-1.254-.564-1.254-1.254v-2.284c0-.69.564-1.254 1.254-1.254.69 0 1.254.565 1.254 1.254v2.284c0 .69-.564 1.254-1.254 1.254"/>
        <path fill="#2AB3AC" d="M38.851 16.042a1.23 1.23 0 0 0-.25 1.851c.463.529.98.99 1.547 1.377a8.352 8.352 0 0 0 3.212 1.312c.804.15 1.65.19 2.526.12a1.145 1.145 0 0 0 1.03-1.358 1.14 1.14 0 0 0-1.194-.923c-.619.041-1.218.004-1.789-.112a6.223 6.223 0 0 1-2.356-.993 6.053 6.053 0 0 1-1.127-1.022 1.232 1.232 0 0 0-1.599-.252M58.596 16.042a1.23 1.23 0 0 0-.25 1.851c.462.529.98.99 1.546 1.377a8.35 8.35 0 0 0 3.212 1.312c.805.15 1.65.19 2.526.12a1.146 1.146 0 0 0 1.03-1.358 1.14 1.14 0 0 0-1.193-.923c-.62.041-1.218.004-1.79-.112a6.22 6.22 0 0 1-2.355-.993 6.053 6.053 0 0 1-1.128-1.022 1.232 1.232 0 0 0-1.598-.252"/>
        <path fill="#226092" d="M95.3 45.45a1.197 1.197 0 0 1-1.373.659c-4.225-1.063-6.177-2.656-6.177-5.912v-.06c0-2.993 2.363-5.28 5.758-5.724.649-.085 1.214.447 1.196 1.1-.015.534-.42.967-.95 1.038-2.228.298-3.604 1.681-3.604 3.372v.061c0 1.787.868 2.874 4.367 3.799a1.2 1.2 0 0 1 .783 1.666m-.844 10.713c-2.495-.198-4.657-1.066-6.666-2.617a1.1 1.1 0 0 1-.18-1.582l.07-.084a1.09 1.09 0 0 1 1.51-.154c1.676 1.337 3.362 2.097 5.458 2.28.575.05 1.01.545.985 1.122a1.087 1.087 0 0 1-1.177 1.035"/>
        <path fill="#2AB3AC" d="M94.699 35.468a1.065 1.065 0 1 1-2.13 0 1.065 1.065 0 0 1 2.13 0"/>
        <path fill="#2FEABD" d="M100.768 22.559h-.047c-.745 0-1.355-.61-1.355-1.354v-5.998c0-.745.61-1.355 1.355-1.355h.047c.744 0 1.354.61 1.354 1.355v5.998c0 .744-.61 1.354-1.354 1.354"/>
        <path fill="#226092" d="M123.908 31.57l-.042.022a1.358 1.358 0 0 1-1.829-.568l-2.794-5.308a1.358 1.358 0 0 1 .568-1.829l.042-.022a1.358 1.358 0 0 1 1.829.568l2.794 5.308c.346.66.091 1.482-.568 1.829"/>
        <path fill="#2797A3" d="M122.582 29.102a1.381 1.381 0 0 1-1.86-.577l-1.428-2.714a1.382 1.382 0 0 1 .577-1.86 1.382 1.382 0 0 1 1.86.577l1.429 2.713c.353.67.093 1.508-.578 1.86"/>
        <path fill="#226092" d="M27.954 40.548l-3.2-4.795a1.677 1.677 0 0 0-1.957-.647c-.68.238-1.107.918-1.107 1.639v10.052c0 .68.555 1.234 1.233 1.234s1.233-.555 1.233-1.233v-3.82c0-.014.004-.027.004-.04v-2.041a.49.49 0 0 1 .895-.276l.88 1.29a1.218 1.218 0 0 0 2.019-1.363"/>
        <path fill="#2AB3AC" d="M22.923 44.31a1.237 1.237 0 0 1-1.233-1.232v-2.52c0-.679.555-1.234 1.233-1.234.679 0 1.233.555 1.233 1.233v2.52c0 .679-.554 1.234-1.233 1.234"/>
        <path fill="#226092" d="M79.496 14.051h-.047c-.745 0-1.355-.61-1.355-1.354V6.699c0-.745.61-1.354 1.355-1.354h.047c.744 0 1.354.61 1.354 1.354v5.998c0 .745-.61 1.354-1.354 1.354"/>
        <path fill="#2797A3" d="M79.496 14.051h-.047c-.745 0-1.355-.61-1.355-1.354v-1.348c0-.745.61-1.354 1.355-1.354h.047c.744 0 1.354.61 1.354 1.354v1.348c0 .745-.61 1.354-1.354 1.354"/>
        <path fill="#226092" d="M100.768 25.982h-.047c-.745 0-1.355-.61-1.355-1.355V15.22c0-.745.61-1.354 1.355-1.354h.047c.744 0 1.354.61 1.354 1.354v9.408c0 .745-.61 1.355-1.354 1.355"/>
        <path fill="#2797A3" d="M90.135 55.009c-.81-.392-1.59-.88-2.346-1.464a1.1 1.1 0 0 1-.179-1.581l.07-.083a1.088 1.088 0 0 1 1.505-.16 11.69 11.69 0 0 0 1.967 1.292c.475.244.694.805.537 1.315a1.12 1.12 0 0 1-1.554.68M100.768 23.358h-.047c-.745 0-1.355-.61-1.355-1.355v-2.588c0-.744.61-1.354 1.355-1.354h.047c.744 0 1.354.61 1.354 1.354v2.588c0 .745-.61 1.355-1.354 1.355"/>
        <path fill="#1A0475" d="M41.594 24.96H29.266a.64.64 0 0 1-.64-.64v-6.626h.004v-5.702c0-.782-.634-1.416-1.416-1.416h-.039c-.782 0-1.416.634-1.416 1.416v5.702h.005V26.3c0 .72.584 1.304 1.304 1.304h14.526c.72 0 1.305-.583 1.305-1.304v-.036c0-.72-.584-1.304-1.305-1.304"/>
        <path fill="#2AB3AC" d="M27.19 13.392c-.787 0-1.43.644-1.43 1.43v2.956c0 .787.643 1.43 1.43 1.43.787 0 1.431-.643 1.431-1.43V14.823c0-.787-.644-1.431-1.43-1.431"/>
    </g>
</svg>
