<svg xmlns="http://www.w3.org/2000/svg" xmlns:xlink="http://www.w3.org/1999/xlink" width="290" height="71" viewBox="0 0 290 71">
    <defs>
        <path id="a" d="M.663 26.831c-1.156 8.9-.8 17.824 1.066 26.709.624 2.967 1.5 6.03 5.633 8.63 8.17 5.143 26.442 7.047 43.096 7.867 31.152 1.535 62.802.92 94.21.303l73.685-1.449c15.885-.312 31.78-.625 47.582-1.27 4.581-.186 9.333-.423 13.184-1.31 7.984-1.842 9.301-5.685 9.723-9.028 2.066-16.409 1.367-32.86-2.095-49.24-.266-1.262-.582-2.566-2.298-3.68-4.356-2.829-15.27-3.243-24.456-3.309L149.913.268c-45.303-.324-90.736-.646-135.827.918-3.403.118-7.156.31-9.35 1.226-1.75.732-2.059 1.748-2.277 2.699C.565 13.354-.104 21.632.453 29.899"/>
    </defs>
    <use fill="#EE7C06" fill-rule="evenodd" xlink:href="#a"/>
</svg>
