<svg width="290" height="211" viewBox="0 0 290 211" xmlns="http://www.w3.org/2000/svg" xmlns:xlink="http://www.w3.org/1999/xlink"><title>9D9B434C-F359-41B5-9C7A-3A1137CE9B33</title><defs><path id="a" d="M68.886 73.785H.605V.173h68.28z"/><path id="c" d="M.196.05H131.16v55.69H.196V.05z"/></defs><g fill="none" fill-rule="evenodd"><path d="M37.091 143.713c.818 2.392 2.672 4.332 9.001 10.382 6.33 6.051 15.055 9.05 23.738 10.18 4.722.615 9.605.716 14.163-.665 7.368-2.232 13.226-8.257 16.365-15.287 3.14-7.03 3.78-14.971 3.052-22.635-.47-4.942-1.56-9.994-4.458-14.023-3.988-5.545-10.734-8.31-17.235-10.404-7.136-2.298-14.7-4.136-22.082-2.821-9.408 1.677-17.502 8.593-21.48 17.283-3.977 8.69-4.036 18.907-1.064 27.99" fill="#E8F7FF"/><path d="M157.091 188.01c.818 2.39 2.672 4.33 9.001 10.381 6.33 6.051 15.055 9.05 23.738 10.18 4.722.615 9.605.716 14.163-.665 7.368-2.232 13.226-8.257 16.365-15.287 3.14-7.03 3.78-14.97 3.052-22.635-.47-4.942-1.56-9.994-4.458-14.023-3.988-5.545-10.734-8.31-17.235-10.403-7.136-2.3-14.7-4.137-22.082-2.822-9.408 1.677-17.502 8.593-21.48 17.283-3.977 8.69-4.036 18.907-1.064 27.99" fill="#FDE8D6"/><path d="M217.091 108.01c.818 2.39 2.672 4.33 9.001 10.381 6.33 6.051 15.055 9.05 23.738 10.18 4.722.615 9.605.716 14.163-.665 7.368-2.232 13.226-8.257 16.365-15.287 3.14-7.03 3.78-14.97 3.052-22.635-.47-4.942-1.56-9.994-4.458-14.023-3.988-5.545-10.734-8.31-17.235-10.403-7.136-2.3-14.7-4.137-22.082-2.822-9.408 1.677-17.502 8.593-21.48 17.283-3.977 8.69-4.036 18.907-1.064 27.99" fill="#E8F7FF"/><path d="M40.25 140.74c.192 12.345 9.66 23.58 21.82 25.907 12.192 2.335 25.134-3.852 31.547-14.356 7.066-11.575 6.369-27.392-1.487-38.404-7.578-10.624-20.578-14.518-32.27-8.086-15.133 8.326-18.679 26.383-18.572 42.26.006 1.041 1.625 1.044 1.618 0-.085-12.813 1.862-27.08 11.636-36.355 9.45-8.97 23.369-10.306 32.957-.804 8.832 8.752 11.545 22.663 7.624 34.327-3.953 11.758-15.235 20.259-27.738 20.298-13.48.042-25.306-11.24-25.517-24.787-.016-1.04-1.635-1.043-1.619 0" fill="#1D1D1B"/><g transform="translate(151.473 137.166)"><mask id="b" fill="#fff"><use xlink:href="#a"/></mask><path d="M1.392 46.591c2.467 15.463 17.814 26.456 32.937 27.164 15.473.724 27.938-11.436 32.509-25.432 5.032-15.407.79-31.917-12.726-41.335-12.028-8.382-28.58-9.377-40.919-1.057C-4.095 17.587-.399 39.105 5.62 56.035c.346.974 1.91.554 1.56-.43C2.21 41.62-2.253 23.648 9.142 11.469 18.97.967 35.22-.788 47.876 5.24c13.433 6.397 21 19.76 19.204 34.603-1.671 13.826-10.925 28.12-25.076 31.593-16.63 4.08-36.335-8.245-39.051-25.275-.164-1.025-1.724-.59-1.561.43" fill="#1D1D1B" mask="url(#b)"/></g><path d="M220.309 95.864c-.052 13.035 6.38 26.807 19.068 31.825 12.89 5.099 26.483-.299 32.354-12.772 5.81-12.342 6.721-28.854-1.432-40.406-6.74-9.546-20.266-14.955-31.218-9.5-6.979 3.477-11.52 10.415-14.536 17.366-3.481 8.023-5.28 16.822-2.983 25.417.269 1.005 1.83.579 1.56-.43-3.35-12.538 2.169-28.802 11.749-37.49 9.456-8.577 23.538-6.082 31.87 2.818 8.956 9.566 9.348 24.38 5.58 36.262-2.01 6.34-5.444 12.629-11.356 16.08-5.128 2.995-11.427 3.622-17.17 2.333-14.306-3.211-21.923-17.722-21.868-31.503.004-1.04-1.614-1.042-1.618 0" fill="#1D1D1B"/><path d="M235.428 113.592c5.302-6.32 20.803-11.003 24.957-1.05.395.947 1.962.531 1.56-.43-4.646-11.13-21.43-7.092-27.662.335-.665.794.475 1.944 1.145 1.145" fill="#1D1D1B"/><path d="M238.322 94.177c-.63 7.63 5.814 14.32 13.644 12.915 7.804-1.4 11.054-10.233 9.999-17.366-.999-6.754-8.07-11.306-14.66-10.659-8.853.87-9.796 10.652-9.57 17.65.034 1.038 1.653 1.042 1.62 0-.188-5.779-.08-14.332 7.126-15.898 5.544-1.204 12.155 2.473 13.66 8.002 1.566 5.749-.872 14.03-6.793 16.227-7.299 2.708-14.009-3.587-13.408-10.87.086-1.039-1.533-1.033-1.618 0" fill="#1D1D1B"/><path d="M243.723 96.519c1.69 5.097 8.701 5.647 10.855.573.402-.947-.992-1.773-1.398-.817-1.562 3.682-6.586 3.765-7.897-.187-.326-.984-1.89-.562-1.56.43M165.616 200.385c10.932-8.368 26.333-6.196 36.452 2.415.788.671 1.938-.468 1.143-1.144-10.627-9.045-26.878-11.496-38.412-2.669-.816.625-.01 2.031.817 1.398" fill="#1D1D1B"/><path d="M173.887 186.06c.943 8.653 10.651 12.124 17.723 7.899 7.99-4.775 9.808-16.51 5.532-24.363-4.246-7.796-16.337-8.314-22.399-2.222-5.682 5.71-5.467 18.23-.025 23.942.72.756 1.863-.39 1.144-1.143-4.44-4.662-4.669-14.06-1.526-19.559 4.005-7.005 16.44-7.904 20.919-1.03 3.925 6.024 3.317 15.87-1.905 20.969-5.622 5.488-16.837 4.758-17.845-4.493-.112-1.024-1.732-1.036-1.618 0" fill="#1D1D1B"/><path d="M180.271 185.767c3.733 4.564 10.89 2.78 12.118-2.961.217-1.016-1.342-1.45-1.56-.43-.989 4.618-6.438 5.885-9.413 2.247-.66-.807-1.8.344-1.145 1.144M56.831 135.3c2.232 8.015 10.102 13.358 18.404 11.695 8.549-1.711 14.172-10.179 12.421-18.738-1.896-9.27-11.628-12.288-19.772-8.862-7.982 3.356-11.811 12.52-8.096 20.44.442.943 1.838.122 1.398-.816-3.327-7.093.328-15.241 7.43-18.162 7.864-3.236 17.054.273 17.702 9.495.506 7.22-4.408 13.688-11.514 15.083-7.449 1.463-14.425-3.427-16.413-10.566-.278-1.001-1.84-.576-1.56.43" fill="#1D1D1B"/><path d="M55.203 160.096c2.88-5.853 6.459-11.392 13.563-12.105 6.35-.637 12.066 3.36 14.238 9.233.358.97 1.923.55 1.56-.43-2.287-6.185-8.076-10.697-14.833-10.481-8.2.262-12.6 6.21-15.925 12.966-.458.932.937 1.752 1.397.817M66.573 134.918c2.66 6.82 11.83 6.816 14.476-.014.376-.972-1.188-1.393-1.56-.43-2.052 5.295-9.283 5.33-11.355.014-.375-.96-1.94-.543-1.561.43M57.197 94.53c1.073 1.996 3.236 5.229 5.751 5.462 1.047.097 1.794-.535 2.2-1.446.712-1.595 1.085-3.426 1.6-5.092.308-.997-1.254-1.424-1.56-.43l-.788 2.548c-.327 1.06-.642 3.251-2.33 2.296-1.516-.858-2.676-2.668-3.476-4.154-.494-.918-1.892-.101-1.397.817" fill="#1D1D1B"/><path d="M56.57 92.796c-10.242.066-20.485.132-30.727.2-4.693.03-9.388.07-14.082.09-2.782.012-5.766.21-7.448-2.455-1.512-2.397-1.679-6.087-2.017-8.795a88.806 88.806 0 0 1 1.13-28.861c.448-2.172.843-4.5 1.667-6.569 1.146-2.88 3.51-3.865 6.357-4.053 4.748-.314 9.665.259 14.416.45a3760.086 3760.086 0 0 1 90.275 4.715c2.234.144 7.304-.456 8.567 1.919.88 1.652.625 5.022.776 6.962.39 5.04.452 10.108.196 15.157-.16 3.142-.27 6.448-.886 9.54-.856 4.293-4.104 4.453-7.784 4.64l-16.52.84-34.313 1.745c-.468.024-.77.353-.81.809l-.449 5.018c-.092 1.037 1.527 1.031 1.619 0l.449-5.018-.81.809 35.584-1.81c5.924-.3 11.878-.445 17.792-.904 3.9-.302 6.062-1.724 6.802-5.698.985-5.3 1.11-10.913 1.097-16.289-.012-5.16-.033-10.72-1.106-15.786-.838-3.95-5.023-3.217-8.27-3.427a3762.597 3762.597 0 0 0-90.274-4.762c-5.39-.22-10.963-.855-16.35-.528-3.237.197-6.099 1.307-7.555 4.364C1.793 49.513 1.24 55.165.657 59.97a90.192 90.192 0 0 0-.447 17.02c.31 4.545.329 10.908 2.954 14.828 2.74 4.095 8.889 2.885 13.078 2.858 13.443-.086 26.885-.174 40.328-.261 1.04-.007 1.043-1.625 0-1.618" fill="#1D1D1B"/><path d="M19.504 59.252c15.505-1.198 31.057-1.699 46.607-1.443 15.214.25 30.47 1.864 45.68.834 1.032-.07 1.04-1.688 0-1.618-15.21 1.03-30.466-.584-45.68-.834-15.55-.256-31.102.245-46.607 1.443-1.032.08-1.04 1.698 0 1.618M20.327 69.194c15.97-.875 31.808-.316 47.74.873 7.203.538 14.318.686 21.48-.383 7.457-1.115 15.36-2.992 22.45.589.928.468 1.749-.928.818-1.398-5.777-2.916-12.026-2.523-18.263-1.602-8.091 1.194-15.803 1.886-23.992 1.352-16.797-1.097-33.395-1.972-50.233-1.049-1.035.056-1.041 1.675 0 1.618M18.177 79.712c6.108.258 12.252.526 18.345-.132 6.048-.653 12.034-2.397 18.099-.93 1.011.245 1.443-1.315.43-1.56-5.517-1.335-10.884-.164-16.387.602-6.799.947-13.65.691-20.487.402-1.041-.044-1.04 1.574 0 1.618M110.077 98.669c22.911-.667 45.833-.92 68.753-.733 5.768.047 11.588-.077 17.35.224 1.81.093 3.89-.018 5.077 1.83.787 1.224.751 2.883.89 4.285.286 2.844.4 5.715.432 8.573a108.95 108.95 0 0 1-.02 3.68c-.03 1.295.316 3.904-.308 5.053l-3.068 1.943-2.548.004-3.822.007-17.836.03c-.429.001-.82.37-.809.81a19.882 19.882 0 0 1-1.065 7.006c.45-.12.901-.238 1.352-.357-1.647-1.813-2.776-3.739-3.551-6.052-.114-.338-.411-.597-.78-.594l-44.413.306c-3.535.025-7.15.267-10.676.066-4.616-.264-6.224-3.108-7.3-7.195a62.182 62.182 0 0 1-1.877-11.288c-.086-1.18-.678-3.843-.169-4.912.81-1.698 4.557-1.567 6.121-1.65 1.036-.055 1.042-1.674 0-1.619-2.46.132-4.767.532-7.128 1.26a.83.83 0 0 0-.594.78c-.096 6.958.266 15.615 3.512 21.948 1.158 2.258 2.894 3.663 5.403 4.13 4.03.751 8.623.127 12.708.098l27.034-.186 13.517-.093c2.195-.016 2.828-.282 3.914 1.578.974 1.668 1.824 3.124 3.135 4.567.432.476 1.168.188 1.352-.357a21.032 21.032 0 0 0 1.123-7.436l-.809.809 16.563-.029c2.539-.004 5.106.103 7.643-.013 1.309-.06 2.575-.116 3.562-1.086 2.217-2.18 1.459-7.249 1.46-9.98 0-4.296.436-9.812-1.098-13.907-1.068-2.852-3.68-3.488-6.453-3.613-5.5-.247-11.034-.178-16.539-.227-10.924-.097-21.85-.096-32.774.004-12.423.112-24.845.356-37.264.718-1.04.03-1.044 1.648 0 1.618" fill="#1D1D1B"/><path d="M117.85 109.587a677.47 677.47 0 0 1 72.07-1.259c1.04.037 1.04-1.58 0-1.618a677.47 677.47 0 0 0-72.07 1.26c-1.034.072-1.042 1.69 0 1.617M120.438 116.922a243.057 243.057 0 0 1 29.772-.269c1.042.055 1.038-1.564 0-1.618-9.927-.519-19.856-.429-29.772.269-1.033.072-1.04 1.69 0 1.618M240.431 52.803l3.174 4.373c.334.46 1.09.583 1.397 0a18.072 18.072 0 0 0 1.996-6.629c.108-1.035-1.511-1.027-1.618 0a15.935 15.935 0 0 1-1.775 5.812h1.397c-1.057-1.458-2.116-2.915-3.174-4.372-.606-.835-2.01-.028-1.397.816" fill="#1D1D1B"/><g transform="translate(158.594 .599)"><mask id="d" fill="#fff"><use xlink:href="#c"/></mask><path d="M87.426 50.844l19.31-.955c5.757-.284 11.83-.057 17.525-.947 4.222-.661 5.38-3.285 5.704-7.234.51-6.244.796-12.512.946-18.774.07-2.924.103-5.848.1-8.773-.001-2.434.507-5.61-.344-7.945-1.305-3.578-7.49-3.852-10.587-4.438C108.542-.408 96.72-.19 85.054.627c-12.516.876-25.003 2.163-37.518 3.078-6.19.453-12.382.865-18.577 1.23-5.722.34-11.58.277-17.264 1.045-3.639.49-7.411 1.734-9.307 5.12C.128 15.14.404 21.097.256 25.56c-.207 6.24.126 12.493.97 18.68.468 3.423.351 9.49 4.243 11.025 1.925.76 4.251.399 6.258.327a676.884 676.884 0 0 0 53.23-4.04c5.358-.622 13.913-3.128 17.86 1.886.644.818 1.782-.334 1.144-1.144-4.837-6.146-15.731-2.718-22.162-2.003a677.927 677.927 0 0 1-48.802 3.635c-2.008.077-5.629.797-7.442-.383-2.433-1.583-2.552-7.997-2.874-10.542a109.79 109.79 0 0 1-.851-15.568c.044-2.705.185-5.408.429-8.102.259-2.864.356-6.13 2.262-8.45 3.232-3.935 9.594-3.529 14.182-3.763A1249.51 1249.51 0 0 0 34.726 6.2 1430.766 1430.766 0 0 0 68.013 3.68c10.3-.896 20.606-1.96 30.954-2.013 5.367-.027 10.741.219 16.064.933 2.536.34 5.056.783 7.552 1.35 1.17.268 2.34.554 3.495.882 2.188.618 3.048 2.817 3.285 4.943.658 5.892 0 12.253-.225 18.17a359.924 359.924 0 0 1-.442 8.761c-.222 3.53.366 9.47-3.942 10.513-2.845.69-6.096.463-9.007.607l-9.011.445-19.31.955c-1.036.051-1.042 1.67 0 1.618" fill="#1D1D1B" mask="url(#d)"/></g><path d="M175.12 20.536c17.471-4.056 35.37-1.31 53.082-1.989 4.008-.154 8.01-.495 11.974-1.12 4.203-.664 8.252-2.062 12.448-2.707 7.511-1.156 14.95 3.794 22.23.609.953-.417.13-1.811-.816-1.397-4.517 1.976-9.208.252-13.777-.581-3.309-.603-6.447-.57-9.738.134-8.682 1.856-16.95 3.4-25.88 3.536-16.686.253-33.508-1.863-49.952 1.955-1.015.235-.585 1.796.43 1.56M180.605 29.347c9.501-2.624 19.307.778 28.936-.751 1.025-.163.59-1.722-.43-1.56-9.64 1.531-19.394-1.884-28.936.751-1.002.277-.577 1.839.43 1.56M181.596 41.328c6.123-1.692 12.221-1.905 18.461-.787 4.63.828 9.157 1.917 13.846.823 5.312-1.238 9.95-4.007 15.46-4.643 5.371-.62 10.801-.067 16.154.472 1.035.104 1.028-1.515 0-1.618-5.74-.578-11.543-1.142-17.29-.324-4.864.692-9.065 2.966-13.73 4.282-5.61 1.582-10.918-.182-16.49-.966-5.676-.797-11.329-.323-16.84 1.2-1.003.278-.577 1.839.43 1.56" fill="#1D1D1B"/></g></svg>