<svg width="309" height="247" viewBox="0 0 309 247" xmlns="http://www.w3.org/2000/svg" xmlns:xlink="http://www.w3.org/1999/xlink"><title>A5811607-3B9E-4BBC-9520-07EB74A2E21C</title><defs><path id="a" d="M.023.313H60.82v57.53H.023V.312z"/><path id="c" d="M69.254.278v70.717H.703V.278h68.551z"/></defs><g fill="none" fill-rule="evenodd"><path d="M2.466 80.912c.965 2.82 3.15 5.108 10.616 12.244 7.465 7.136 17.754 10.673 27.995 12.006 5.569.725 11.327.844 16.702-.785 8.69-2.633 15.599-9.738 19.301-18.028 3.702-8.29 4.458-17.657 3.599-26.696-.554-5.827-1.839-11.786-5.257-16.538-4.704-6.539-12.66-9.799-20.327-12.269-8.415-2.71-17.337-4.878-26.041-3.327C17.958 29.497 8.412 37.653 3.72 47.9-.969 58.15-1.039 70.2 2.466 80.911" fill="#E8F7FF"/><path d="M108.466 53.912c.965 2.82 3.15 5.108 10.616 12.244 7.465 7.136 17.754 10.673 27.995 12.006 5.569.725 11.327.844 16.702-.785 8.69-2.633 15.599-9.738 19.301-18.028 3.702-8.29 4.458-17.657 3.599-26.696-.554-5.827-1.839-11.786-5.257-16.538-4.704-6.539-12.66-9.799-20.327-12.269-8.415-2.71-17.337-4.878-26.041-3.327-11.096 1.978-20.642 10.134-25.333 20.382-4.69 10.249-4.76 22.299-1.255 33.01" fill="#FDF4E4"/><path d="M230.466 70.912c.965 2.82 3.15 5.108 10.616 12.244 7.465 7.136 17.754 10.673 27.995 12.006 5.569.725 11.327.844 16.702-.785 8.69-2.633 15.599-9.738 19.301-18.028 3.702-8.29 4.458-17.657 3.599-26.696-.554-5.827-1.839-11.786-5.257-16.538-4.704-6.539-12.66-9.799-20.327-12.269-8.415-2.71-17.337-4.878-26.041-3.327-11.096 1.978-20.642 10.134-25.333 20.382-4.69 10.249-4.76 22.299-1.255 33.01" fill="#E8F7FF"/><path d="M106.509 106.649a1889.866 1889.866 0 0 1 44.444-3.64c13.665-.96 28.207-1.843 44.454-2.704a895.1 895.1 0 0 0 6.307-.36c4.88-.29 9.929-.588 14.886-.704l.568-.016c2.534-.074 5.153-.151 6.749 2.329.686 1.066.939 2.66 1.162 4.068.047.297.093.586.142.86.547 3.113.982 6.425 1.369 10.423 1.188 12.254 1.287 25.167.305 39.477a226.987 226.987 0 0 1-.802 9.215c-.52 4.753-.894 8.187-6.015 9.105-5.41.969-11.15 1.266-16.701 1.553-2.557.133-5.201.27-7.756.47-14.486 1.139-29.218 2.247-43.467 3.32-14.941 1.125-30.39 2.287-45.582 3.486-4.516.355-9.031.717-13.546 1.083-.777.062-1.598.162-2.441.264-5.298.642-10.777 1.307-11.774-5.56-.583-4.01-.462-8.345-.345-12.538.05-1.82.104-3.704.095-5.503-.017-3.467-.02-6.935-.023-10.403-.008-9.546-.016-19.416-.332-29.122.089-.61.166-1.273.246-1.968.43-3.697.965-8.3 3.952-10.071 2.418-1.433 6.137-1.601 9.419-1.75 1.15-.052 2.237-.101 3.223-.201 3.82-.383 7.64-.754 11.463-1.113m-30.19 56.159c.01 1.814-.04 3.646-.09 5.585-.124 4.623-.252 9.402.485 13.82.739 4.435 3.95 5.303 7.35 5.303 1.16 0 2.342-.1 3.455-.196l.702-.06c21.2-1.743 42.767-3.367 63.625-4.937 14.374-1.082 29.237-2.201 43.853-3.351 2.586-.203 5.246-.36 7.817-.512 5.6-.333 11.392-.676 16.974-1.517 6.163-.928 7.126-4.972 7.686-9.766a246.191 246.191 0 0 0 1.06-45.541c-.073-1.043-.135-2.13-.2-3.241-.31-5.457-.664-11.642-2.548-16.562-1.995-5.211-7.082-4.975-11.572-4.761l-.313.014a2784.26 2784.26 0 0 0-53.637 2.993c-20.093 1.317-39.725 2.893-58.351 4.685-1.274.123-2.55.24-3.825.36-3.815.355-7.76.72-11.626 1.192l-.22.026c-2.363.287-5.04.612-7.01 2.37-2.754 2.463-3.231 6.665-3.652 10.372-.09.799-.178 1.573-.286 2.295a1.128 1.128 0 0 0-.042.347c.322 9.819.329 19.814.336 29.48.003 3.868.006 7.735.029 11.602" fill="#231F1F"/><path d="M197.049 193.554c-.511.804-2.023 1.013-3.485 1.215-.443.06-.886.122-1.311.2-2.813.512-5.718.99-8.632 1.418-6.167.908-12.752 1.668-20.13 2.322-5.186.46-10.748.867-17.503 1.281-2.921.18-5.843.344-8.765.506a25.22 25.22 0 0 0-.887.08c-1.964.201-7.177.73-8.487-.795-.283-.329-.353-.754-.213-1.299v-.009a1194.728 1194.728 0 0 0 36.052-2.587 1062.83 1062.83 0 0 0 33.54-3.469c.057.468.005.85-.18 1.137M65.9 148.994c-.093-2.478-.187-4.955-.276-7.432-.366-10.154-.527-17.892-.522-25.093 0-1.038-.036-2.124-.073-3.23-.115-3.348-.232-6.807.643-9.755 1.475-4.967 5.72-6.096 11.12-7.057 33.109-5.887 67.262-7.62 100.29-9.297l3.578-.182c8.02-.409 17.35-.893 26.569-1.474 4.436-.28 8.54-.56 12.545-.857l1.02-.079c5.405-.42 10.997-.864 13.669 4.64 1.398 2.876 1.744 6.447 2.08 9.902.1 1.033.199 2.043.323 3.007a372.466 372.466 0 0 1 1.368 11.976c.72 7.435 1.137 14.696 1.237 21.583.094 6.45-.068 13.26-.495 20.82-.192 3.39-.44 7.006-.76 11.058-.091 1.153-.115 2.405-.142 3.73-.063 3.218-.135 6.864-1.272 9.456-1.95 4.446-6.038 4.973-10.366 5.532-.63.081-1.26.163-1.887.256a908.47 908.47 0 0 1-14.43 2.038 998.618 998.618 0 0 1-28.046 3.332c-18.905 1.978-38.891 3.536-59.405 4.631-9.464.505-19.32.927-29.297 1.254-.916.03-2.2.144-3.685.276-6.36.56-17.003 1.502-21.195-2.063-1.053-.895-1.618-2.003-1.724-3.383.227-14.548-.33-29.312-.867-43.59m47.546 89.125c-2.444.332-4.973.673-7.428.673h-.008c-4.551-.002-7.592-1.752-11.306-4.773l-1.146-.933c-4.386-3.563-8.921-7.248-12.958-11.27-2.543-2.533-10.28-10.24-9.63-15.04.158-1.172.812-2.068 2-2.738.877-.495 2.413-.604 3.769-.7.602-.043 1.167-.083 1.634-.153 11.935-1.768 23.928-2.525 36.189-3.204l9.708-.538c.083-.004.257-.029.477-.062.1-.014.247-.037.41-.059.06.382.2.897.474 1.594l-.005.003.038.082.002.004-.002.001.214.486.067-.029c.605.805 1.584 1.19 2.575 1.48 2.285.661 5.209.305 7.789-.008 1.043-.127 2.028-.248 2.918-.298 3.899-.219 7.798-.447 11.695-.708 19.639-1.313 34.61-3.19 48.546-6.088.284-.058.538-.246.696-.514.164-.278.207-.604.117-.893-.335-1.08-.822-1.656-1.148-1.99.056-.027.118-.055.187-.086.395-.176 1.217-.17 1.875-.169.338.004.65.002.895-.017l31.442-2.439c3.088-.234 5.463.873 8.207 2.164.63.297 1.284.603 1.969.906 1.533.677 3.062 1.364 4.589 2.052 3.606 1.621 7.336 3.3 11.07 4.803 6.643 2.674 13.377 4.616 19.088 6.162l.908.245c2.312.622 4.702 1.265 6.959 2.13l.316.12c1.398.533 3.139 1.195 4.246 2.1 1.348 1.103 3.032 4.014 2.715 6.251-.165 1.166-.85 2.043-2.036 2.61-29.92 3.49-60.39 6.543-89.858 9.496-28 2.806-56.952 5.708-85.385 8.978-.953.111-1.912.24-2.874.37m-35.864-37.546c-1.891.283-3.703.691-5.261 1.338-1.782.743-2.906 1.907-3.338 3.462-.944 3.385 1.62 7.856 3.935 11.011 5.614 7.65 13.35 13.95 21.449 20.262 4.235 3.3 8.897 4.281 13.69 4.281 3.568 0 7.209-.544 10.797-1.08 1.793-.269 3.646-.546 5.456-.749 26.147-2.94 52.769-5.602 78.514-8.173l.278-.028c30.076-3.005 59.502-5.986 88.822-9.407.09-.01.174-.03.253-.057.068-.016.135-.037.2-.066 1.513-.645 2.652-1.969 3.207-3.728.712-2.254.39-4.97-.821-6.92-2.211-3.56-8.484-5.18-12.635-6.252a96.728 96.728 0 0 1-1.604-.422c-7.05-1.934-14.545-4.076-21.857-7.095-3.073-1.27-6.16-2.66-9.145-4.004-1.1-.495-2.198-.99-3.298-1.48-.835-.372-1.753-.855-2.726-1.367-2.256-1.188-4.812-2.534-7.043-2.8a26.367 26.367 0 0 0-3.4-.164c2.98-1.086 5.369-3.058 6.223-7.17 1.346-6.473 1.6-13.452 1.845-20.2.07-1.914.139-3.81.232-5.673.81-16.229.132-33.167-2.018-50.343-.137-1.089-.234-2.31-.338-3.603-.447-5.605-1.006-12.579-5.346-15.96-2.611-2.036-6.01-2.23-8.663-2.166-3.412.077-6.88.366-10.235.646-1.893.16-3.783.316-5.671.438-10.874.701-21.946 1.268-32.652 1.817-28.196 1.444-57.351 2.938-85.812 7.03l-1.45.207c-4.994.714-10.16 1.454-15.171 2.496-3.274.68-6.592 1.671-8.67 4.297-2.212 2.8-2.315 6.457-2.406 9.684-.165 5.828-.085 11.757.012 17.33.146 8.451.466 17.035.774 25.338.5 13.48 1.02 27.416.81 41.14a1.199 1.199 0 0 0-.002.17c0 .064.005.128.015.19.38 4.068 3.653 6.634 9.475 7.424a51.19 51.19 0 0 0 3.575.346" fill="#231F1F"/><path d="M295.889 219.983c-.314-.236-.772-.28-1.163-.112-.39.166-.65.515-.7.934-.227 1.868-4.108 2.593-5.57 2.866-1.465.275-2.935.534-4.404.793l-1.322.234c-4.401.78-8.804 1.542-13.211 2.284a1432.152 1432.152 0 0 1-24.052 3.842 1345.041 1345.041 0 0 1-48.773 6.447 1439.554 1439.554 0 0 1-46.652 4.504c-7.947.64-16.216 1.242-24.58 1.792-1.702.112-3.427.275-5.255.448-6.76.639-13.75 1.3-19.84-.635-5.54-1.76-9.697-5.961-13.718-10.024-1.856-1.874-3.775-3.811-5.808-5.491-5.152-4.254-9.9-8.727-11.396-16.618-.115-.601-.642-.951-1.243-.836-.571.108-1.081.645-.946 1.355 1.134 5.977 3.778 10.63 8.32 14.649 1.044.922 2.14 1.812 3.2 2.672 1.17.95 2.38 1.934 3.515 2.957 1.36 1.226 2.655 2.578 3.907 3.884 1.607 1.68 3.27 3.417 5.112 4.93 4.87 4.006 10.61 5.829 18.457 5.829.516 0 1.042-.008 1.576-.023 7.447-.22 15.016-.808 22.336-1.376 2.045-.16 4.088-.32 6.129-.47 37-2.74 73.328-6.804 107.974-12.078a1468.716 1468.716 0 0 0 31.656-5.184c1.232-.215 2.536-.377 3.916-.548 3.39-.42 6.899-.854 9.794-2.154 1.986-.892 2.89-2.031 3.12-3.93.046-.382-.092-.726-.38-.941M34.425 92.913c1.516 4.657 6.41 13.34 12.316 13.236 6.209-.11 1.458-13.19.936-16.244l-.873 1.538c13.585-1.844 27.002-10.216 29.243-24.715 2.123-13.732-8.28-24.11-20.43-28.35-13.666-4.768-29.593-2.375-40.757 6.976C5.277 53.38.157 66.292 4.645 78.393c4.645 12.53 19.56 21.748 31.914 13.264 1.317-.905.068-3.073-1.262-2.16C20.879 99.4 5.58 83.414 5.423 69.046 5.262 54.448 18.388 42.747 31.742 39.6c14.733-3.47 37.106 1.619 41.495 18.418C77.719 75.18 61.02 87.012 46.139 89.032c-.714.098-.974.948-.873 1.538.426 2.486 1.263 5.229 1.327 7.745.053 2.097.908 5.479-2.205 4.22-3.755-1.52-6.423-6.814-7.552-10.286-.496-1.524-2.911-.872-2.411.664" fill="#231F1F"/><path d="M28.247 66.454c.445.889.89 1.777 1.334 2.667.302.604 1.154.773 1.71.448.614-.36.751-1.104.448-1.71l-1.333-2.667c-.302-.603-1.155-.773-1.71-.448-.615.359-.752 1.105-.449 1.71M37.581 65.787l.666 1.334c.303.603 1.155.773 1.711.448.614-.36.751-1.104.448-1.71l-.667-1.334c-.302-.603-1.154-.773-1.71-.448-.614.359-.75 1.105-.448 1.71M47.88 64.16c-.007.02-.215.372-.083.182-.131.095-.157.12-.077.073.082-.043.05-.03-.098.042.226-.028-.213-.092.024-.01.029.01.308.045.109 0-.194-.043.21-.017.036.019-.092-.041-.088-.035.013.016a7.844 7.844 0 0 1-.11-.093c.107.237-.125-.205.027.009-.057-.156-.072-.188-.047-.097.022.09.017.056-.018-.107l.023-.15c-.041.134-.031.114.028-.057.03-.04.062-.078.093-.116-.08.075-.081.08-.003.018.082-.06.076-.06-.02.002l-.078.04c.4-.07-.061-.028-.05-.011.165-.02.199-.025.103-.02a1.074 1.074 0 0 1-.14 0c.388.233-.008-.114-.02-.021-.002.016.147.064.183.103l.084.12c-.067-.116-.063-.098.01.054-.217-.64-.857-1.06-1.536-.873-.622.17-1.093.896-.873 1.538.383 1.122 1.439 1.7 2.597 1.546 1.125-.15 2.07-.988 2.099-2.173.027-1.094-.876-1.975-1.902-2.182-1.222-.247-2.34.31-2.783 1.484-.24.632.264 1.37.873 1.537.702.193 1.298-.24 1.537-.873" fill="#231F1F"/><g transform="translate(117 12.687)"><mask id="b" fill="#fff"><use xlink:href="#a"/></mask><path d="M22.247 48.046c-1.024 3.372-.56 6.323 1.508 9.169.315.433.854.76 1.412.574 1.624-.542 2.51-1.404 3.545-2.74 1.254-1.616 1.597-2.7 3.611-3.541 2.176-.908 4.577-.574 6.9-.847 5.195-.611 10.336-2.374 14.405-5.741 9.395-7.777 9.017-21.618 2.156-30.906C42.616-3.811 3.41-6.876.19 20.776c-1.598 13.727 8.577 24.78 21.042 28.672 1.54.48 2.198-1.932.664-2.411C8.223 42.769-2.554 28.09 4.825 13.89 12.09-.092 32.633.387 44.537 7.306c11.86 6.892 20.16 24.603 7.884 35.387-2.782 2.445-6.286 3.999-9.86 4.86-3.413.824-6.97.314-10.332 1.09-1.784.413-2.777 1.123-3.922 2.522-.429.525-.709 1.165-1.136 1.683-3.6 4.36-3.313-1.507-2.514-4.138.47-1.543-1.943-2.202-2.41-.664" fill="#231F1F" mask="url(#b)"/></g><path d="M142.127 38.493l-.142 1.99c-.047.674.609 1.25 1.25 1.25.716 0 1.202-.574 1.25-1.25l.142-1.99c.048-.674-.609-1.25-1.25-1.25-.717 0-1.202.574-1.25 1.25M147.895 39.416c-.615.455-1.237.97-1.46 1.74-.23.8.017 1.679.749 2.122 1.221.742 3.173-.175 2.679-1.76-.478-1.53-2.893-.876-2.41.666-.047-.573.165-.944.632-1.115.202-.015.231-.02.09-.016.325.044.411.152.55.449-.11-.239.224.385.105.377.025.003.333-.31.327-.304.542-.4.815-1.085.448-1.712-.313-.533-1.163-.85-1.71-.447M152.11 41.493c.005-.132.006-.12.003.033a.182.182 0 0 1 .011-.126c.073-.057.085-.117.192-.156-.635.23-1.062.85-.873 1.537.168.612.9 1.105 1.537.873 1.173-.425 1.88-1.587 1.541-2.826-.425-1.55-2.838-.892-2.41.665" fill="#231F1F"/><g transform="translate(230 19.687)"><mask id="d" fill="#fff"><use xlink:href="#c"/></mask><path d="M15.25 56.322c8.026 10.415 21.611 16.765 34.83 14.041 14.358-2.959 19.962-19.476 19.086-32.6-.92-13.783-8.692-26.204-20.978-32.63C37.23-.6 21.497-2.17 10.993 5.484-1.486 14.58-.733 37.467 7.543 48.943l1.079-1.88c-5.957.295-9.509 6.231-7.216 11.655.391.923 1.708.701 2.159 0 2.744-4.254 7.888-5.708 12.437-3.458 1.437.711 2.706-1.444 1.262-2.158-5.777-2.858-12.362-1.069-15.858 4.355h2.159c-1.585-3.749 1.154-7.7 5.057-7.895.861-.043 1.671-1.06 1.08-1.882C.358 34.724 1.777 9.697 19.059 4.313c13.788-4.295 29.925.998 39.129 11.933 9.835 11.681 11.586 30.083 3.417 43.143-10.309 16.486-34.489 8.267-44.197-4.329-.968-1.257-3.14-.012-2.158 1.262" fill="#231F1F" mask="url(#d)"/></g><path d="M252.674 56.196l.706 1.986c.226.636.853 1.06 1.537.873.616-.17 1.1-.898.873-1.538l-.705-1.986c-.225-.636-.852-1.062-1.538-.873-.615.169-1.1.898-.873 1.538M261.34 55.529l.707 1.986c.226.636.853 1.062 1.537.873.615-.17 1.1-.898.873-1.538l-.705-1.985c-.226-.637-.853-1.062-1.538-.873-.615.169-1.1.898-.873 1.537M270.743 55.156v1.334c0 1.608 2.5 1.61 2.5 0v-1.334c0-1.608-2.5-1.611-2.5 0" fill="#231F1F"/></g></svg>