<svg width="423" height="103" viewBox="0 0 423 103" xmlns="http://www.w3.org/2000/svg"><title>ED52D69F-5A63-4B08-8BE2-70590395EBBD</title><path d="M422.212 18.491c-.27-6.073-2.121-9.301-8.372-10.278-9.306-1.455-18.998-.926-28.348-.219-18.93 1.433-37.238 3.51-56.211 1.125-19.041-2.392-37.765-5.154-56.982-5.926C233.963 1.655 195.55 1.059 157.193.192c-19.113-.432-38.158-.31-57.139 2.214-19.318 2.568-38.016 3.467-57.492 3.046C29.378 5.167 4.891.769.796 18.225c-.85 3.619-.922 7.463-.662 11.344-.226 18.273-.243 36.6.57 54.858.27 6.074 2.12 9.3 8.37 10.278 9.306 1.454 18.998.925 28.348.218 18.932-1.432 37.238-3.509 56.212-1.126 19.043 2.394 37.764 5.156 56.981 5.926 38.338 1.54 76.748 2.135 115.106 3.002 19.114.432 38.159.312 57.14-2.212 19.318-2.57 38.016-3.468 57.491-3.047 13.185.284 37.671 4.68 41.768-12.774.848-3.619.921-7.463.66-11.345.229-18.272.243-36.6-.568-54.856" fill="#E8F7FF" fill-rule="evenodd"/></svg>