<?xml version="1.0" standalone="no"?>
<!DOCTYPE svg PUBLIC "-//W3C//DTD SVG 20010904//EN"
 "http://www.w3.org/TR/2001/REC-SVG-20010904/DTD/svg10.dtd">
<svg version="1.0" xmlns="http://www.w3.org/2000/svg"
 width="260.000000pt" height="260.000000pt" viewBox="0 0 260.000000 260.000000"
 preserveAspectRatio="xMidYMid meet">
<metadata>
Created by potrace 1.11, written by Peter Selinger 2001-2013
</metadata>
<g transform="translate(0.000000,260.000000) scale(0.100000,-0.100000)"
fill="#000000" stroke="none">
<path d="M1308 2354 c-2 -1 -15 -5 -30 -8 -77 -14 -126 -71 -158 -188 -17 -60
-19 -94 -16 -198 3 -69 7 -136 10 -150 3 -14 13 -59 22 -100 42 -192 128 -370
229 -476 33 -34 111 -84 154 -99 256 -85 405 162 327 540 -18 87 -84 261 -141
375 -102 203 -203 294 -337 303 -31 3 -59 3 -60 1z m90 -200 c151 -99 286
-441 269 -684 -6 -87 -31 -153 -60 -158 -12 -3 -43 22 -90 70 -56 57 -83 95
-120 168 -110 223 -163 559 -97 612 25 20 59 18 98 -8z"/>
<path d="M561 2095 c-186 -57 -206 -376 -48 -769 123 -303 335 -472 530 -421
140 36 205 226 162 475 -19 104 -132 355 -222 493 -61 91 -145 175 -207 206
-58 28 -151 35 -215 16z m159 -202 c53 -39 83 -72 129 -139 57 -85 132 -253
147 -334 3 -14 9 -43 14 -65 20 -84 7 -226 -22 -262 -26 -32 -157 79 -233 197
-59 90 -77 129 -118 250 -71 206 -84 332 -40 376 21 21 77 11 123 -23z"/>
<path d="M2434 1540 c-23 -9 -43 -52 -59 -127 -16 -78 -107 -268 -178 -373
-178 -263 -403 -405 -747 -470 -36 -7 -73 -14 -83 -16 -101 -19 -486 -26 -642
-11 -66 6 -210 28 -360 54 -16 3 -68 16 -115 30 -110 32 -127 34 -150 14 -32
-27 -30 -78 5 -119 48 -57 296 -129 590 -173 189 -27 489 -30 660 -5 195 28
470 137 641 254 184 124 338 322 442 564 80 188 105 341 60 372 -25 18 -34 19
-64 6z"/>
</g>
</svg>
