<svg xmlns="http://www.w3.org/2000/svg" xmlns:xlink="http://www.w3.org/1999/xlink" width="140" height="103" viewBox="0 0 140 103">
    <defs>
        <path id="a" d="M48.333.386V50.88H.968V.386z"/>
    </defs>
    <g fill="none" fill-rule="evenodd">
        <path fill="#E8F7FF" d="M10.226 67.501c6.7 22.781 27.132 34.975 56.558 34.975 29.425 0 55.97-10.755 61.564-32.52C133.942 48.19 127.078 5.25 75.605.34 24.131-4.569 3.527 44.72 10.226 67.501z"/>
        <path fill="#F48913" d="M27.817 84.106c-6.173 1.758-13.597.08-18.204-4.46-3.669-3.616-5.538-8.533-6.377-13.594C4.253 51.104 21.08 42.235 33.624 51.565c11.801 8.777 8.524 28.458-5.807 32.54m-.976-38.61C16.444 43.043 6.818 48.95 2.674 57.863c.177-13.665 5.78-26.72 15.268-36.527 1.187-1.226-.686-3.103-1.875-1.874C6.172 29.688.267 43.286.007 57.57a45.6 45.6 0 0 0 .585 8.258c-.034.453-.057.911-.064 1.37-.005.502.222.853.544 1.06 2.046 8.857 7.203 16.63 17.04 18.671 11.356 2.357 22.25-4.5 24.916-15.817 2.74-11.627-4.627-22.89-16.187-25.617M86.136 57.022c-.257 11.364-6.998 22.816-19.984 19.358-10.314-2.745-14.594-12.97-14.953-22.766.785-9.862 6.845-19.314 17.796-19.78 12.81-.545 17.382 12.522 17.14 23.188M67.5 31.309c-10.174 1.167-16.26 8.861-18.259 17.849-.368.199-.647.565-.676 1.096a37.399 37.399 0 0 0-.007 3.84c-.115 2.042-.034 4.1.246 6.121.076.548.398.837.79.927 2.276 9.048 8.204 16.887 18.359 18.306 14.464 2.02 21.006-11.44 20.843-23.925-.163-12.428-6.964-25.863-21.296-24.214"/>
        <g transform="translate(91.212 31.18)">
            <mask id="b" fill="#fff">
                <use xlink:href="#a"/>
            </mask>
            <path fill="#F48913" d="M34.53 47.271c-13.957 4.85-27.505-8.338-28.039-21.797-.068-1.699-2.72-1.708-2.651 0 .072 1.825.353 3.62.79 5.371-2.892-9.159.555-20.137 9.04-25.204 9.597-5.727 23.366-1.717 28.92 7.824 5.69 9.776 4.282 29.517-8.06 33.806m3.613-42.334c-8.281-5.741-20.015-6.394-28.12.025C.98 12.125-1.587 25.34 3.673 35.456c.606 1.167 2.097.64 2.394-.355 3.059 7.045 9.036 12.743 16.661 14.916 11.993 3.416 21.895-3.649 24.641-15.31 2.534-10.758.28-23.18-9.226-29.77" mask="url(#b)"/>
        </g>
    </g>
</svg>
