<svg xmlns="http://www.w3.org/2000/svg" xmlns:xlink="http://www.w3.org/1999/xlink" width="146" height="103" viewBox="0 0 146 103">
    <defs>
        <path id="a" d="M34.665 60H0V.338h34.665z"/>
        <path id="c" d="M31.888.556v44.677H.262V.556h31.626z"/>
    </defs>
    <g fill="none" fill-rule="evenodd">
        <path fill="#E8F7FF" d="M14.226 67.501c6.7 22.781 27.132 34.975 56.558 34.975 29.425 0 55.97-10.755 61.564-32.52C137.942 48.19 131.078 5.25 79.605.34 28.131-4.569 7.527 44.72 14.226 67.501z"/>
        <g transform="translate(0 32.768)">
            <mask id="b" fill="#fff">
                <use xlink:href="#a"/>
            </mask>
            <path fill="#EE933F" d="M12.193 56.378c-8.126-3.2-10.129-11.844-9.676-20.046.214 1.073 2.033 1.367 2.45.059 4.072-12.808 23.171-9.214 26.582 2.083C35.1 50.235 23.601 60.87 12.193 56.378M2.555 35.726l-.006.029a46.88 46.88 0 0 1 1.27-7.96c1.138-4.582 2.936-8.993 5.426-13.008 2.732-4.404 7.734-11.1 13.198-12.018 1.583-.266.912-2.676-.665-2.411C15.334 1.441 9.84 8.884 6.688 14.169 2.933 20.461.724 27.691.111 34.98c-1.075 12.783 5.57 27.124 20.572 24.763C32.755 57.843 38.718 42.88 31.604 33 24.47 23.096 6.61 22.975 2.554 35.726" mask="url(#b)"/>
        </g>
        <path fill="#EE933F" d="M55.68 86.144c-7.91.552-9.74-6.419-7.75-12.452 1.292-3.917 4.013-7.102 6.81-10.036 1.417-1.485 2.858-2.979 4.268-4.499 3.579 2.938 7.035 5.964 8.977 9.908 4.782 9.711-3.158 16.441-12.305 17.08m4.92-28.733c6.614-7.4 12.005-15.539 9.918-26.313-.306-1.578-2.715-.91-2.411.665 1.838 9.486-3.162 17.52-9.31 24.196-3.425-2.778-6.705-5.69-8.574-9.727-2.02-4.363-1.806-10.759 3.043-13.219 4.149-2.105 9.231-.4 13.317.955 1.531.507 2.187-1.907.665-2.41-8.776-2.91-20.832-2.764-20.746 9.468.053 7.607 5.236 12.182 10.677 16.635-4.497 4.604-9.615 9.048-11.66 15.366-1.49 4.61-1.414 11.13 3.001 14.212 3.971 2.773 10.495 1.466 14.647-.255 11.145-4.618 10.48-16.556 3.142-24.48-1.707-1.844-3.695-3.475-5.709-5.093M83.722 37.067a898.156 898.156 0 0 1-1.962 46.405c-.11 1.606 2.39 1.6 2.5 0a898.156 898.156 0 0 0 1.962-46.405c.026-1.609-2.474-1.609-2.5 0M90.894 60.742a65.203 65.203 0 0 0 18.021-11.024c1.223-1.05-.552-2.812-1.767-1.768A61.789 61.789 0 0 1 87.71 59.308c-.98.355-1.278 1.71-.298 2.285 8.88 5.195 17.676 10.548 24.125 18.74.994 1.265 2.753-.515 1.768-1.766-6.038-7.671-14.118-12.916-22.41-17.825"/>
        <g transform="translate(114 38.768)">
            <mask id="d" fill="#fff">
                <use xlink:href="#c"/>
            </mask>
            <path fill="#EE933F" d="M29.443 35.773c-1.336 6-8.401 8.614-13.681 5.77-3.486-1.877-5.676-5.093-6.866-8.702a48.116 48.116 0 0 0 10.578-1.974c1.535-.467.88-2.881-.664-2.41a46.04 46.04 0 0 1-10.564 1.921 24.569 24.569 0 0 1-.478-4.45 37.022 37.022 0 0 1 .12-3.471 116.278 116.278 0 0 0 12.579-2.733c1.549-.429.89-2.842-.664-2.41A115.705 115.705 0 0 1 8.16 19.893C8.65 16.446 9.58 13 10.888 9.94c2.89-6.763 11.525-10.147 15.71-2.206.75 1.424 2.908.163 2.158-1.261-3.1-5.882-10.762-7.964-16.052-3.545C8.24 6.656 6.138 13.771 5.483 20.311c-1.005.145-2.01.294-3.02.411-1.58.183-1.598 2.685 0 2.5.948-.11 1.889-.25 2.832-.382a42.973 42.973 0 0 0 .045 4.955c.063.882.182 1.778.352 2.672a47.687 47.687 0 0 1-4.23-.154c-1.603-.131-1.595 2.37 0 2.5 1.628.132 3.245.178 4.852.149 1.669 5.455 5.368 10.436 11.07 11.896 6.239 1.599 13.05-2.053 14.47-8.42.349-1.568-2.061-2.237-2.411-.665" mask="url(#d)"/>
        </g>
    </g>
</svg>
