<svg xmlns="http://www.w3.org/2000/svg" width="121" height="103" viewBox="0 0 121 103">
    <g fill="none" fill-rule="evenodd">
        <path fill="#FDF4E4" d="M1.226 67.501c6.7 22.781 27.132 34.975 56.558 34.975 29.425 0 55.97-10.755 61.564-32.52C124.942 48.19 118.078 5.25 66.605.34 15.131-4.569-5.473 44.72 1.226 67.501z"/>
        <g fill="#EE933F">
            <path d="M81.309 91.68a252.286 252.286 0 0 1-21.978 1.593c-14.38.413-28.768-.435-43.009-2.458 2.024-1.469 6.122-.866 8.249-.915l8.868-.205 17.735-.41 35.47-.82c.414-.01.712-.311.773-.704 4.372-.114 8.72.099 13.06.649-5.9 2.263-13.144 2.568-19.168 3.27M33.077 77.64l-.001-.047c1.987 1.708 4.683 2.437 7.4 1.697 2.66-.726 4.87-2.748 7.63-3.125 3.244-.442 5.404 2.525 8.538 2.7 2.168.12 3.962-1.13 5.752-2.166 3.366-1.95 7.357-3.537 11.064-1.454 1.815 1.02 3.235 2.915 5.443 3.12 2.563.238 4.65-3.112 7.149-2.175.15.056.286.062.406.037l-.529 10.005c-.36.016-.72.025-1.081.045-.434.023-.682.328-.745.663l-37.996.878c-4.31.1-8.621.2-12.931.298l-.1-10.476m-.057-6.18c.355-3.011 2.218-3.769 4.915-4.339a126.536 126.536 0 0 1 22.78-2.675c3.564-.094 7.133-.04 10.693.165 3.623.21 7.856.19 11.351 1.179 3.02.856 3.964 2.417 3.958 5.374-.002 1.175-.084 2.358-.163 3.537-.027-.013-.05-.028-.08-.04-1.935-.725-2.968.147-4.645 1.02-3.9 2.03-4.843-.35-7.92-2.025-3.852-2.096-8.325-.611-11.868 1.416-1.17.67-2.345 1.599-3.655 1.972-2.292.651-3.697-.429-5.572-1.373-1.642-.827-3.16-1.389-5.03-1.107-2.242.336-4.129 1.731-6.165 2.61-3.3 1.426-6.628.794-8.638-2.02-.06-1.25-.1-2.513.039-3.693m7.928-11.45a.844.844 0 0 0-.151.04.797.797 0 0 0 .041-.463l-.49-2.533c-.09-.472-.765-.76-1.163-.473-1.04 1.032-2.32 1.06-3.838.08.093-.604.186-1.207.277-1.81a51.278 51.278 0 0 0 .553-9.897 53.033 53.033 0 0 0-.544-5.648c-.251-1.69-.692-3.42.795-4.785.859-.79 2.625-1.15 3.774-1.52 2.994-.968 6.247-2.087 8.391 1.083.887 1.31 1.237 3.102 2.127 4.479a19.689 19.689 0 0 0 3.195 3.787c.497.457 1.226.84 1.622 1.376 2.444 3.313-.55 4.306-2.892 4.204-.556-.025-.85.523-.764 1.003l.752 4.233c.413 2.323.216 3.86-2.319 4.66-3.067.966-6.193 1.667-9.366 2.183m28.208-2.9l-.001-.003c-1.85-4.06 2.612-8.245 2.29-12.461-.063-.806-1.015-1.05-1.477-.4-2.14-1.629-2.394-3.145-.76-4.55.417-.488.841-.968 1.273-1.443.655-.763 1.363-1.524 1.878-2.396 1.034-1.755.57-4.224 1.536-5.798 2.035-3.311 3.308-.535 4.455.344.867.667 1.632.697 2.554 1.137 4.336 2.069 2.92 4.855 3.062 8.614.082 2.138 1.146 3.936 1.483 5.997.484 2.953-2.18 3.516-2.718 5.953-.645 2.92-.123 6.196-3.872 7.234-3.242.898-6.844-.349-9.517-2.135a.85.85 0 0 0-.186-.092m34.343 30.138a88.388 88.388 0 0 0-15.98-1.073c.242-4.523.494-9.046.716-13.57.13-2.633.226-5.617-2.195-7.295-2.809-1.947-7.808-1.751-11.075-2.03-.554-.048-1.109-.08-1.664-.12.02-.037.039-.073.052-.115l.71-2.114c2.059.445 4.195.429 6.106-.334 3.418-1.367 3.117-4.414 4.035-7.397.686-2.226 2.655-2.991 2.898-5.379.177-1.748-.553-3.276-1.015-4.921-.988-3.524 1.082-8.857-1.996-11.664-.644-.586-1.052-.668-1.837-1.003a15.32 15.32 0 0 1-2.523-.752 10.87 10.87 0 0 1-1.458-1.41c-.922-.805-1.752-1.534-3.09-1.29-1.065.194-1.895 1.01-2.422 1.92-1.282 2.222-.718 4.803-2.27 7.032-1.627 2.337-5.86 5.479-4.145 8.872.702 1.39 2.194 1.923 3.471 1.54-.508 4.078-3.996 7.448-2.03 11.76.115.255.302.375.503.402.058.098.14.188.252.263a16.64 16.64 0 0 0 3.992 1.944l-.708 2.11a.732.732 0 0 0-.02.43 126.958 126.958 0 0 0-11.092-.193c-4.055.109-8.1.423-12.126.911a9.2 9.2 0 0 1 .141-2.789c.093-.439-.153-.766-.475-.91.285-.076.571-.147.855-.229 1.494-.427 3.595-.72 4.733-1.845 1.802-1.782.437-5.903-.212-8.494 2.02-.117 4.17-.904 4.644-3.123.584-2.73-2.333-4.198-3.926-5.812a17.997 17.997 0 0 1-3.908-6.009c-.424-1.07-.62-2.275-1.396-3.165-1.737-1.992-5.067-1.141-7.43-.466l-.64-3.344c-.193-1-1.72-.577-1.529.421.214 1.118.43 2.234.643 3.352-2.13.584-5.141 1.447-6.137 3.33-.722 1.365-.153 3.03.064 4.438.422 2.733.638 5.49.62 8.255-.019 2.793-.557 5.477-.733 8.246-.068 1.072-.284 1.951.447 2.821 1.294 1.544 3.177.993 4.683.12.093.48.185.96.279 1.439.112.581.673.68 1.087.466-.128.493.286 1.174.97 1.063a71.059 71.059 0 0 0 5.923-1.206.808.808 0 0 0-.09.232 10.61 10.61 0 0 0-.182 3.403c-.171.023-.343.04-.514.064-4.004.549-8.986.824-12.72 2.436-2.792 1.207-2.364 3.54-2.339 6.23l.01 1.076c-.415.154-.74.634-.478 1.147.15.295.32.572.498.843l.116 12.39-5.753.133c-3.41.08-9.824-1.085-11.748 2.71-.204.405-.067 1.085.473 1.165 15.224 2.243 30.61 3.175 45.992 2.658 7.752-.26 15.49-.876 23.184-1.85 6.533-.826 14.026-1.172 19.948-4.272.567-.297.491-1.34-.189-1.448"/>
            <path d="M36.978 29.271c1.002-.182.577-1.71-.422-1.528-3.783.69-5.2-4.12-4.849-6.796.336-2.569 1.813-4.034 3.735-5.588 1.843-1.49 3.24-2.931 4.065-4.89a39.73 39.73 0 0 0 2.506 4.864c1.87 3.115 4.256 7.062 1.48 10.468-.64.784.476 1.912 1.121 1.12 4.987-6.118-2.505-13.354-4.454-19.14-.226-.673-1.386-.83-1.528 0-1.034 6.055-8.457 7.45-8.61 13.947-.09 3.868 2.66 8.326 6.956 7.543M79.65 24.692v3.13c0 1.02 1.584 1.022 1.584 0v-3.13c0-1.02-1.584-1.02-1.584 0"/>
            <path d="M77.773 22.635c-1.656-3.272-1.81-6.534-.65-9.99.447-1.329.915-2.57 1.218-3.851.846 1.618 1.846 3.144 2.83 4.723 1.662 2.661 4.786 7.919 2.736 11.023-.564.854.807 1.648 1.368.8 1.717-2.6.453-6.17-.665-8.798-1.646-3.87-4.584-6.994-5.987-10.99-.28-.797-1.603-.734-1.556.21.17 3.46-1.87 6.372-2.25 9.746-.315 2.808.324 5.43 1.589 7.926.46.91 1.828.11 1.367-.8"/>
        </g>
    </g>
</svg>
