<svg xmlns="http://www.w3.org/2000/svg" width="23" height="20" viewBox="0 0 23 20">
    <g fill="#ED7E11" fill-rule="evenodd">
        <path d="M20.09 11.758c-.07.493-2.318 3.27-6.227 4.644-1.413.498-2.887.75-4.378.75a14.61 14.61 0 0 1-4.014-.582l-.04-.012c-.928-.265-1.008-.742-.973-1.003.053-.395.42-.635.743-.638h.004c.294 0 .52.136.656.217.016.01.032.02.046.027.257.089 3.898 1.29 7.61-.252 3.301-1.373 4.711-2.93 5.242-3.517.15-.168.227-.251.331-.312.349-.203.597-.128.744-.03.149.1.313.303.255.708M6.044 5.805c.154-.35.388-.59.675-.693.245-.088.488-.133.72-.133 1.486 0 2.43 1.794 3.197 3.476.609 1.332.74 2.699.354 3.655-.178.44-.448.743-.782.877-.192.077-.4.116-.621.116-.55 0-1.946-.271-3.018-2.786-.75-1.761-.956-3.532-.525-4.512m5.185-1.998c.183-.336.435-.555.73-.636.197-.053.39-.08.576-.08 1.576 0 2.402 1.925 3.051 3.73.496 1.377.514 2.75.05 3.672-.214.423-.509.704-.852.81a1.632 1.632 0 0 1-.483.071c-.45 0-1.991-.218-2.923-3.027-.602-1.816-.66-3.598-.149-4.54m9.834-1.969c-.11-.367-.234-.744-.488-1.03-.469-.528-1.248-.617-1.952-.66A76.585 76.585 0 0 0 6.516.354C4.38.56 2.106.923.518 2.37l-.411.276a42.233 42.233 0 0 0 1.199 13.418c.225.886.505 1.808 1.16 2.445.818.794 2.036.977 3.17 1.088 4.663.455 9.38.363 14.022-.274.509-.07 1.047-.16 1.434-.498.426-.372.574-.963.686-1.518a32.128 32.128 0 0 0-.715-15.469"/>
        <path d="M14.303 10.1c.195-.106.722-1.246-.018-3.42-.647-1.9-1.515-2.402-1.884-2.402a.254.254 0 0 0-.085.012c-.207.073-.615.508.06 2.985.53 1.944 1.657 2.824 1.927 2.824M9.622 11.827c.193-.122.624-1.3-.294-3.407-.77-1.77-1.646-2.242-2.042-2.242a.307.307 0 0 0-.12.02c-.2.09-.57.556.308 2.97.638 1.754 1.795 2.659 2.148 2.659"/>
    </g>
</svg>
