<svg xmlns="http://www.w3.org/2000/svg" width="19" height="18" viewBox="0 0 19 18">
    <path fill="#097EBB" fill-rule="evenodd" d="M.469 17.42h3.628V5.924H.469V17.42zM2.191 4.487h-.027C.851 4.488 0 3.61 0 2.495 0 1.36.877.5 2.216.5c1.338 0 2.161.858 2.187 1.992 0 1.114-.849 1.996-2.212 1.996zm16.42 12.931h-4.113v-5.948c0-1.557-.643-2.62-2.058-2.62-1.083 0-1.684.718-1.965 1.41-.105.247-.088.593-.088.938v6.22H6.312s.052-10.536 0-11.494h4.075V7.73c.241-.789 1.543-1.914 3.621-1.914 2.578 0 4.603 1.653 4.603 5.213v6.391z"/>
</svg>
