<svg xmlns="http://www.w3.org/2000/svg" width="140" height="111" viewBox="0 0 140 111">
    <g fill="none" fill-rule="evenodd">
        <path fill="#E8F7FF" d="M8.226 70.501c6.7 22.781 27.132 34.975 56.558 34.975 29.425 0 55.97-10.755 61.564-32.52 5.594-21.765-1.27-64.705-52.743-69.615C22.131-1.569 1.527 47.72 8.226 70.501z"/>
        <path fill="#F48913" d="M70.49 1.81a3173.705 3173.705 0 0 1-5.532 107.393c-.11 1.606 2.39 1.6 2.5 0A3173.705 3173.705 0 0 0 72.99 1.81c.056-1.608-2.444-1.606-2.5 0M20.958 57.789a240.075 240.075 0 0 0-1.442-14.756c-.18-1.413-2.194-1.612-2.466-.381-.702-.157-1.513.222-1.5 1.167.045 3.452.074 6.899.008 10.339a338.69 338.69 0 0 1-.358-13.376c1.78-.037 3.561-.062 5.342-.073a1.285 1.285 0 0 0-.013.244c.281 5.613.413 11.226.43 16.836m-.856 15.046H20.1c.073-.1.14-.21.187-.341.188-.512.343-1.026.474-1.545-.022.638-.056 1.276-.08 1.913a1.315 1.315 0 0 0-.578-.027m-6.325-7.313c.13 1.619.252 3.238.405 4.855.097 1.03 1.44 1.565 2.105.973-.005.368 0 .736-.007 1.104-.004.232.05.42.127.585a18.047 18.047 0 0 1-2.66-.32l.03-7.197m19.201-8.204l-.484-7.847c-.166-2.685-1.164-6.751-.204-9.354.313-.848-.31-1.425-1.015-1.504a1.186 1.186 0 0 0-.827-.335 349.2 349.2 0 0 0-24.02.289 1.206 1.206 0 0 0-1.137.87c-.719-.222-1.67.157-1.704 1.142L2.376 75.696c-.055 1.61 2.445 1.608 2.5 0 .4-11.554.798-23.11 1.196-34.664.11.026.225.04.356.035a351.6 351.6 0 0 1 5.026-.19 1.292 1.292 0 0 0-.072.412c-.08 18.882-.16 37.764-.242 56.646-.007 1.608 2.493 1.61 2.5 0l.097-22.701c2.28.385 4.542.4 6.841.034a357.352 357.352 0 0 1-1.922 24.125c-.182 1.596 2.32 1.584 2.5 0a356.757 356.757 0 0 0 1.873-58.44 1.34 1.34 0 0 0-.037-.253c2.192.002 4.383.023 6.575.067-.21 1.562.088 3.184.186 4.78l.604 9.809 1.21 19.62c.097 1.598 2.598 1.61 2.5 0-.364-5.885-.726-11.772-1.088-17.658M118.648 38.273a97.861 97.861 0 0 1 11.84.196c1.603.124 1.596-2.377 0-2.5a97.861 97.861 0 0 0-11.84-.196c-1.603.071-1.611 2.571 0 2.5"/>
        <path fill="#F48913" d="M132.154 37.144c-.316-1.576-2.728-.909-2.411.664 2.209 10.983 4.787 21.97 4.53 33.24-.036 1.61 2.464 1.61 2.5 0 .262-11.493-2.367-22.705-4.62-33.904M130.256 79.196c-.25.124-.594.185-.973.218.446-.688.536-1.652.44-2.655-.238-2.467-.896-5.012-1.653-7.504a35.778 35.778 0 0 0-1.5-4.771c.108-.021.212-.046.314-.075.385 1.15.77 2.299 1.151 3.449.918 2.769 1.84 5.536 2.706 8.321.606 1.948 1.312 2.13-.485 3.017m-7.507-.126a29.886 29.886 0 0 1 3.616-.19 1.533 1.533 0 0 0-.047.38c-.58-.068-1.109-.132-1.476-.146a92.721 92.721 0 0 0-2.093-.044M112.7 74.964c.201-.655.414-1.304.635-1.952.04.602.57 1.19 1.192 1.263-.309.264-.62.525-.919.805-.767.713-.199 2.203.883 2.134.097-.006.19-.023.286-.03.216.354.573.61 1.02.565a30.466 30.466 0 0 0 3.984-.669c-.088.068-.18.129-.27.198-.67.525-.456 1.277.058 1.727-1.913-.074-3.815-.246-5.523-.727-2.786-.786-1.973-1.263-1.346-3.314m7.137-27.9c-.378.202-.757.396-1.135.609a1.057 1.057 0 0 0-.254.207c-.005-.378-.01-.756-.013-1.135.088.042.172.088.282.108l1.12.211m5.715 14.24c.025-.235.045-.468.068-.703l.14.415c-.066.106-.136.2-.208.288m.97 15.014l.001.07-.11-.003c.036-.021.072-.043.108-.067m-10.89-8.574c.12.084.26.145.411.187-.349.17-.698.343-1.045.521.098-.258.193-.517.292-.776a1.1 1.1 0 0 0 .341.068m4.101-3.795a12.723 12.723 0 0 0-3.129 1.169c-.107.013-.214.029-.322.044.288-.716.572-1.433.871-2.144.691.647 1.633.832 2.58.931m-.38-5.893a17.69 17.69 0 0 0 1.764.722c-.58.515-1.079 1.1-1.433 1.811-.322-.291-.603-.607-.78-.959-.048-.099-.08-.224-.119-.338.188-.412.376-.825.568-1.236m-.864-7.79c-.004-.197-.012-.394-.016-.591a.993.993 0 0 0 .53.282l.2.035-.714.274m.08 2.736c0-.008 0-.017-.002-.025a.203.203 0 0 0 .026.011l-.025.014m6.493 15.669a22.28 22.28 0 0 0-.59.168 1.355 1.355 0 0 0-.26-.44c.034-.037.068-.073.098-.113.13-.079.26-.152.387-.235.065-.042.113-.095.166-.145l.2.765m-2.18-16.859c.03.107.064.211.095.318a1.094 1.094 0 0 0-.73-.643l.597-.23c-.027.168-.02.354.038.555m.22 1.974l-.003.026c-.2-.019-.4-.041-.599-.065.511-.276.672-.883.54-1.407.033.115.07.228.103.343-.013.367-.017.736-.04 1.103m.933 11.028c.046.144.136.47.258.925-.162-.047-.322-.085-.483-.127a1.207 1.207 0 0 0-.152-.133c.165-.302.183-.66.07-.992.082.011.164.021.246.029.01.095.028.194.061.298m-9.779 5.616c.15.241.373.428.688.484.14.024.276.04.415.061-.557.367-1.106.754-1.642 1.181-.058.046-.09.101-.134.151.168-.481.336-.963.51-1.441.053-.146.11-.29.163-.436m12.45-26.99c.273 1.744-.09 3.789-.134 5.574-.033 1.396.203 4.207.146 6.855-.249-.792-.493-1.585-.732-2.379a69.58 69.58 0 0 0-.505-8.311 1.307 1.307 0 0 0-.543-.928c.853-.749.286-2.028-.814-2.172l-.046-.007c.355-.153.715-.305 1.09-.451.381-.15.621-.418.754-.719.355.522.596 1.337.783 2.538m2.106 18.881c.484-1.833.05-4.393.085-5.875l.31-13.006c.04-1.677.7-4.314-.826-5.585-1.698-1.413-6.103.027-7.889.569-1.208.366-1.166 2.024 0 2.41.086.028.167.048.252.075-.484.251-.965.511-1.444.789-1.17.681-.52 2.167.618 2.326-.39.15-.79.289-1.199.419-.107.033-.196.091-.285.149.003-1.766.018-3.533.056-5.299.01-.406-.143-.708-.377-.91.848-.829.188-2.607-1.132-2.118-3.949 1.462-4.77 8.298-5.98 11.784-2.482 7.157-4.555 14.393-5.703 21.891-.24 1.573 2.168 2.252 2.411.664.811-5.3 2.053-10.479 3.632-15.602.743-2.411 1.55-4.801 2.385-7.182.413-1.178 1.237-4.474 2.238-6.781-.066 4.349-.039 8.699.143 13.047.05 1.219-.144 3.269-.077 5.135-2.322 5.074-4.388 10.335-5.905 15.613-.542 1.888-1.31 3.818.453 5.19.874.68 2.446.632 3.47.754 1.056.126 2.114.223 3.172.322-.225 6.56-.648 13.154-.408 19.713.058 1.605 2.558 1.612 2.5 0-.237-6.489.175-13.011.4-19.499 1.11.083 2.218.168 3.328.223.607.03 1.456.138 2.417.254-.294 6.457-.64 12.911-.935 19.368-.073 1.608 2.427 1.605 2.5 0 .29-6.371.632-12.74.923-19.112 2.263.173 4.56.125 5.623-.839 1.606-1.457.114-3.998-.414-5.693-1.376-4.42-2.878-8.801-4.342-13.194M117.377 21.401c1.03 2.263 3.843 3.42 6.173 2.57 1.5-.548.852-2.965-.664-2.41-1.37.5-2.748-.099-3.35-1.422-.667-1.463-2.822-.193-2.159 1.262M23.412 29.116c-4.619 3.98-15.355 5.437-16.595-2.781-.065-.43-.292-.69-.58-.814.113-.18.183-.403.173-.676-.052-1.641-.107-3.381-.049-5.124 1.467-1.671 1.75-3.71.78-5.687.595-2.105 1.603-4.047 3.285-5.623 5.545-5.195 13.486-.6 16.334 5.133 2.707 5.449 1.172 11.677-3.348 15.572M4.082 8.255c-.056.114-.117.222-.168.34-.084.203-.152.498-.212.845a15.446 15.446 0 0 0-1.046 2.807 9.266 9.266 0 0 1-.03-.713c.021-1.277.751-2.28 1.456-3.28m3.081-3.927c.031-.014.065-.022.097-.033a.888.888 0 0 0-.064.199c-.02.012-.044.019-.063.03-.776.472-1.4 1.157-1.908 1.984-.084.097-.16.203-.24.304.575-1.135.612-1.81 2.178-2.484m22.868 10.795c-1.148-4.018-4.105-7.805-7.86-9.884 1.197-.068 2.394-.128 3.592-.183 1.01-.045 1.471-1.011 1.08-1.88C25.548.31 22.915.645 20.162.903a58.862 58.862 0 0 0-4.04.514C12.63.315 8.157.662 5.101 2.573c-1.639 1.025-1.929 2.426-2.83 3.955C1.242 8.278.137 9.315.125 11.534c-.004.84.161 2.91.708 4.586-.987 2.402-1.325 4.84.27 6.109 1.163.922 2.067.662 2.776-.193-.01.973.004 1.918.031 2.809.02.582.361.95.787 1.11a1.291 1.291 0 0 0-.29 1.046c1.177 7.805 10.692 9.296 16.837 6.474 6.965-3.196 10.918-10.891 8.787-18.353"/>
        <path fill="#F48913" d="M22.145 22.33c-.7 1.544-2.084 2.587-3.805 2.642-1.605.05-1.612 2.55 0 2.5 2.539-.082 4.903-1.541 5.963-3.88.658-1.454-1.495-2.727-2.158-1.262M14.383 18.77v.918c0 1.607 2.5 1.611 2.5 0v-.918c0-1.607-2.5-1.61-2.5 0M20.037 19.436c.72 0 1.2-.574 1.25-1.25l.096-1.248c.052-.675-.612-1.25-1.25-1.25-.719 0-1.198.573-1.25 1.25l-.096 1.248c-.05.674.611 1.25 1.25 1.25M134.695 27.488a9.325 9.325 0 0 0 .805-1.669c.215.695.479 1.379.789 2.057a6.843 6.843 0 0 1-1.594-.388zm-5.604-.863c-4.878 3.111-13.483 1.851-14.02-5.142-.05-.648-.496-1.031-.996-1.153-.012-.011-.025-.019-.036-.029.182-.259.266-.596.172-.992-.742-3.099-.717-6.59.55-9.361 2.688-.571 5.386-1.333 7.132-3.453 1.08 5.18 6.108 9.145 11.432 7.754 1.375 4.626.109 9.604-4.234 12.376zm-12.756 1.799l.013.01c.007.053.002.047-.013-.01zm-2.516-2.828l.007-.062.02.037c-.005.008-.013.01-.02.018l-.007.007zm-.278 3.976c.13-.12.255-.245.38-.368.037.105.074.21.119.308a9.464 9.464 0 0 1-.5.06zm-1.473-8.692a48.889 48.889 0 0 0-1.001 7.779c-.398-.84-.24-2.217-.06-4.027.189-1.92.35-3.852.566-5.775.068.374.139.748.226 1.116.067.276.198.479.364.623a1.413 1.413 0 0 0-.095.284zm7.083-15.194a7.11 7.11 0 0 1-1.811 1.012 8.347 8.347 0 0 1 1.81-1.012zm2.117-3.074c-.264.031-.53.052-.797.104-.774.148-1.478.375-2.146.638a7.235 7.235 0 0 1 2.943-.742zm8.123 2.135c-1.75-1.194-3.736-1.977-5.846-2.168-.031-.012-.061-.024-.092-.033.029-.016.059-.031.085-.049 2.195-.278 4.215.744 5.853 2.25zm2.815 6.819c-2.085.193-4.255-3.184-5.083-5.284 2.128 1.213 3.912 3.15 5.083 5.284zm-7.791-5.544c.152.692.46 1.506.889 2.35a8.724 8.724 0 0 1-1.057-3.201c.08.016.158.041.238.06a1.23 1.23 0 0 0-.07.791zm14.994 22.404c-4.034-6.427-1.34-14.523-4.9-21.159-2.311-4.313-6.655-7.897-11.726-7.175a1.49 1.49 0 0 0-.228.057c-5.87-.572-9.707 3.682-11.554 8.934-1.256 3.572-1.661 7.364-2.053 11.111-.36 3.449-1.388 7.496-.758 10.92.08.437.482.737.873.873 2.143.74 4.535.208 6.692-.242.623-.129.89-.586.894-1.069.1-.037.202-.072.298-.113.399-.174.583-.154.399-.383.578.717 1.4.44 1.81-.16a11.897 11.897 0 0 0 7.037.502 13.223 13.223 0 0 0 5.44-2.703c-.081.481.07.984.577 1.241 2.074 1.052 3.754 1.443 6.119 1.247.896-.074 1.62-1.019 1.08-1.881z"/>
        <path fill="#F48913" d="M118.815 12.938c-.721 0-1.195.574-1.25 1.25l-.086 1.084c-.054.674.613 1.25 1.25 1.25.72 0 1.195-.574 1.25-1.25l.086-1.084c.055-.674-.612-1.25-1.25-1.25M123.868 14.686c-.715 0-1.203.574-1.25 1.25-.002.031-.006.051-.01.071l.013-.04c.017-.04.133-.31.053-.126-.025.06-.044.113-.067.17-.01.07-.022.071-.001.007a2.745 2.745 0 0 0-.157.507c-.129.662.186 1.35.873 1.538.611.168 1.409-.207 1.537-.873.005-.024.044-.197.052-.262.016-.03.028-.064.04-.09.12-.289.146-.59.167-.902.046-.674-.608-1.25-1.25-1.25"/>
        <path fill="#F48913" d="M122.609 16.008l-.003.01.002-.008v-.003"/>
    </g>
</svg>
