<svg xmlns="http://www.w3.org/2000/svg" width="20" height="17" viewBox="0 0 20 17">
    <path fill="#27A7E0" fill-rule="evenodd" d="M19.15 2.39a7.694 7.694 0 0 1-2.256.634A4.023 4.023 0 0 0 18.622.796c-.76.46-1.6.796-2.497.976A3.876 3.876 0 0 0 13.258.5C11.089.5 9.33 2.305 9.33 4.529c0 .316.034.623.102.918-3.266-.168-6.16-1.771-8.099-4.211a4.096 4.096 0 0 0-.532 2.028c0 1.397.694 2.63 1.748 3.353a3.862 3.862 0 0 1-1.781-.503v.05c0 1.952 1.355 3.58 3.153 3.95a3.723 3.723 0 0 1-1.035.142c-.253 0-.5-.024-.739-.072.5 1.6 1.95 2.766 3.67 2.797A7.761 7.761 0 0 1 0 14.65a10.94 10.94 0 0 0 6.022 1.808c7.228 0 11.179-6.138 11.179-11.462 0-.175-.003-.35-.01-.522A8.055 8.055 0 0 0 19.15 2.39"/>
</svg>
