<svg xmlns="http://www.w3.org/2000/svg" xmlns:xlink="http://www.w3.org/1999/xlink" width="128" height="112" viewBox="0 0 128 112">
    <defs>
        <path id="a" d="M.326.63h109.23v105.527H.326V.63z"/>
    </defs>
    <g fill="none" fill-rule="evenodd">
        <path fill="#FDF4E4" d="M8.226 67.501c6.7 22.781 27.132 34.975 56.558 34.975 29.425 0 55.97-10.755 61.564-32.52C131.942 48.19 125.078 5.25 73.605.34 22.131-4.569 1.527 44.72 8.226 67.501z"/>
        <g transform="translate(10.11 5.212)">
            <mask id="b" fill="#fff">
                <use xlink:href="#a"/>
            </mask>
            <path fill="#EE933F" d="M59.274 103.934c-3.868.289-7.85.138-11.823-.418-1.054-3.766 1.873-4.956 2.958-8.047.697-1.983-.112-3.541-1.032-5.314-2.24-4.315-5.511-8.272-10.293-9.77-2.728-.854-5.638-.796-8.419-1.358-1.258-.255-3.144-1.038-4.692-2.132-.03-1.634-.153-3.263-1.11-4.654a6.813 6.813 0 0 0-.886-1.015 5.29 5.29 0 0 1 .71-.762c1.813-1.617 4.573.166 6.485-1.35 1.488-1.18 1.274-3.085 2.374-4.43 1.185-1.447 3.37-1.226 4.73-2.616 2.06-2.107 3.763-4.83 5.542-7.17 1.946-2.56 6.293-7.885 4.683-11.576-.807-1.852-1.888-1.341-3.483-2.041-2.354-1.033-2.687-3.906-3.508-6.176.316.339.636.673.962 1 1.161 1.158 2.312 1.782 3.944 1.138 4.506-1.777 5.206-9.673 4.635-13.623-.614-4.244-2.61-8.934-7.62-8.41-6.155.645-9.3 6.578-11.18 11.759a.919.919 0 0 0-.014.653 10.875 10.875 0 0 0-.748-.044 1.017 1.017 0 0 0-.502.113c-.663-2.174-1.813-4.426-4.314-4.722-1.38-.162-2.396.572-3.7.826-2.727.53-5.165-1-7.362-2.384-.03-.018-.058-.028-.087-.043a51.802 51.802 0 0 1 3.444-3.625C29.296 7.903 42.852 2.663 56.555 2.79c-.977 4.53-6.807 2.395-9.702 3.938-2.428 1.293-2.394 3.103-5.78 3.263-2.383.113-4.72-.99-6.857-1.882-1.249-.522-1.794 1.516-.56 2.031 2.813 1.175 5.83 2.406 8.942 1.803 3.16-.61 4.706-3.494 7.981-3.93 2.292-.304 4.072.23 5.996-1.328 1.27-1.029 1.874-2.346 2.107-3.835a52.02 52.02 0 0 1 10.234 1.546c-.084.093-.157.2-.211.331-1.351 3.294.401 5.19.713 8.548.272 2.952.648 4.97 2.533 7.363.234.297.686.343 1.025.271 2.247-.482 2.65-2.553 4.86-2.632.428-.016.934-.314 1.016-.773.146-.822-.118-3.146.772-3.314.55-.103 3.924 3.561 4.381 4.096.693.81 2.14 2.15 1.664 3.438-.125.34-.932.438-1.049.785-.237.707-.585 1.15-.572 1.962.014.859.935 2.106.607 2.763-.851 1.705-3.24-1.987-3.61-2.704-.863-1.677-1.172-2.675-3.308-2.758-.524-.02-1.115.501-1.053 1.053.48 4.3-.844 8.028-3.998 11.011-.248.234-.404.694-.27 1.025.187.466-.685 1.04-1.597 1.503-.8-.074-1.542.248-2.197 1.192-.65.933.578 1.87 1.44 1.44.158-.077.315-.155.473-.235.667.711 5.02 3.815 4.94 4.143a1.175 1.175 0 0 0-.032.274c-1.567 1.377-4.11 2.884-4.93 4.858-.69 1.66.22 3.993.544 5.582.6 2.929 2.257 6.522 5.794 3.85 1.456-1.1 2.009-3.289 2.627-4.898.529-1.374.97-4.12 2.257-4.978.338-.226 1.982-.157 2.376-.294 2.73-.948 1.926-3.224 5.75-2.497 1.954.372 2.817 1.567 4.992.701.883-.35 1.002-1.359.25-1.924-1.083-.815-4.217-2.392.382-2.993-.462.06 2.901.96 2.541.916.457.057 4.918-.706 4.916-.732.123 1.339 2.23 1.352 2.106 0-.171-1.863-1.073-2.336-2.876-2.563-.465-.059-.877.383-1.316.438-1.972.25-3.583.095-5.412-.404-1.057-.288-1.837-.779-3.001-.6-1.538.238-2.94 1.46-2.874 3.085.034.844.487 1.563 1.115 2.195-1.245-.578-2.492-1.21-3.82-.776-2.415.789-2.973 3.44-6.194 3.294-.495-.023-.855.35-1.016.773-.688 1.807-1.188 4.161-2.206 5.799l-.552 1.45c-2.615 2.199-3.884 2.064-3.807-.403-1.664-4.085 1.194-5.996 3.955-8.485.27-.242.357-.525.326-.793a1.08 1.08 0 0 0 .136-.315c.335-1.367.339-1.532-.6-2.69-.334-.414-.891-.374-1.267-.698-.224-.194-1.662-1.925-2.464-2.626l1.314-.653c.375-.187.647-.784.484-1.19-.455-1.129 2.42-4.304 2.913-5.52a13.7 13.7 0 0 0 .963-4.145c.457 1.211.966 2.582 1.528 2.999 1.278.947 4.061.579 5.477.688.422.032.94-.348 1.016-.773.243-1.362-.277-1.972-.385-3.309-.147-1.809.928-2 1.565-3.256 1.24-2.446-1.576-4.58-3.103-6.006-1.37-1.28-3.95-5.031-6.283-4.57-.968.192-1.273.847-1.64 1.623-.724 1.536.597 2.84-1.686 2.922-.451.017-.906.314-1.015.774l-2.531-.827-.302-2.317c-.061-.879.09-1.681-.038-2.585-.298-2.076-1.62-3.814-.716-6.018.053-.132.074-.254.076-.37a52.032 52.032 0 0 1 7.274 2.75c18.993 8.866 30.508 28.494 29.288 49.074-1.305.276-2.615.072-3.929-.629-.13-.473-.292-.933-.488-1.38-.438-.406-.774-.868-1.321-1.13-2.309-1.1-4.113.72-5.996 1.682-2.53 1.292-5.39 3.398-8.305 2.859-2.161-.4-3.347-1.322-5.39.092-.445.309-.605.968-.388 1.434-.16.035-.318.106-.466.23-2.329 1.936-4.706 5.416-3.935 8.65.326 1.37 1.12 1.408 1.755 2.408.816 1.286 1.38 3.882 1.995 5.362.903 2.169.673 3.601.968 5.737.061.447.034.997.298 1.361.439.609.955.778 1.728.948 1.603.355 3.66-.172 5.108-.833 1.877-.858 6.057-5.983 8.086-2.553.689 1.166 2.51.108 1.818-1.062-1.074-1.818-2.951-3-5.137-2.48-2.341.556-8.296 8.242-9.696 3.396-.346-1.197.063-2.69-.308-3.987-.446-1.56-1.306-3.125-1.795-4.723-.438-1.435-.728-1.282-1.289-2.461l-.713-.523-.479-3.482c.2-1.644 1.885-3.27 3.085-4.269.403-.335.424-.762.241-1.11.497.092.991.186 1.488.28.682.127 1.161-.351 1.285-.878 1.9.472 3.883 2.026 5.867 1.326 1.57-.554 2.565-2.353 3.926-3.261 1.424-.951 4.38-2.783 6.027-1.073 1.095 1.136.008 1.285 1.419 2.205 1.325.864 2.885.522 4.357.099a50.458 50.458 0 0 1-.541 3.83c-4.16 22.831-24.582 39.427-47.375 41.128M3.969 56.97c.112-.952-.911-1.22-1.574-.824.067-2.977.367-5.942.89-8.864 1.332 1.82 3.916 1.09 5.146 3.114 1.168 1.918 1.026 3.237 2.859 4.943 1.236 1.15 2.314 2.185 2.774 3.919.426 1.608.118 3.367.497 4.991.539 2.315 1.64 3.577 3.482 5.061.92.742 2.553 1.65 3.665 2.592-.243 1.183-.192 2.433.193 3.518.418 1.182 1.12 2.122 1.99 2.882 0 .388-.01.767-.038 1.122-.353 4.472-3.62 5.44-5.297 8.868-.4.816-.593 1.603-.574 2.375-9.612-8.156-15.655-19.7-14.013-33.697m28.025 24.384c6.691.997 12.874 2.77 15.564 9.863 1.186 3.129-.775 4.839-1.914 7.393-.678 1.52-.779 3.02-.47 4.543C36.391 101.58 27.78 98.03 20.7 92.816c.083-.245.064-.53-.122-.822-1.685-2.64 3.507-6.202 4.494-8.36.568-1.242.79-2.608.87-3.978 1.89.936 4.099 1.408 6.052 1.699m2.634-54.752c.032.176.105.352.244.516.495.585.983 1.185 1.471 1.79a10.158 10.158 0 0 0-2.329-.962c.112-.109.206-.245.268-.419.111-.306.228-.615.346-.925m1.734-.972c-.402-.475-.929-.416-1.3-.116 1.242-2.98 2.964-5.907 5.923-7.395 2.78-1.4 6.558.6 7.45 3.419a15.26 15.26 0 0 1 .686 5.109c-.057 1.728-.373 3.443-.996 5.058l-.924 1.945c-1.902 1.642-3.299 1.589-4.19-.16-2.485-1.775-4.691-5.546-6.65-7.86M14.549 23.23c2.047 1.29 4.321 2.679 6.813 2.804 1.067.054 1.93-.263 2.954-.463 3.3-.643 4.242 1.038 4.905 3.624.236.922 1.309.918 1.81.378.13.066.282.107.46.111 4.623.107 7.048 3.475 8.494 7.437.527 1.445.872 3.011 1.823 4.259 1.083 1.423 4.27 1.926 4.782 3.318 1.047 2.848-3.639 7.9-5.252 9.995-1.681 2.18-3.599 5.809-6.217 6.615-1.276.393-1.953.288-2.863 1.431-1.163 1.461-1.01 3.489-2.712 4.505-1.702 1.017-3.658-.106-5.472 1.015-.692.427-1.223 1.032-1.63 1.72-1.313-.923-2.745-1.737-3.789-2.85-3.414-3.642-1.33-9.027-5.087-12.62-1.184-1.13-2.144-1.973-2.826-3.541-.33-.758-.304-1.695-.782-2.411-.852-1.274-5.681-2.965-5.058-4.431.274-.644-.09-1.24-.575-1.49 1.908-7.112 5.212-13.847 9.9-19.71.078.112.183.217.322.304m73.35-12.227C79.038 4.607 68.744 1.22 58.345.773a1.182 1.182 0 0 0-1.054-.037 55.314 55.314 0 0 0-33.877 10.578C1.008 27.62-5.662 57.996 5.924 82.833c.501 1.073 1.954.39 1.928-.615 8.406 12.968 24.094 21.592 39.643 23.51 24.245 2.991 49.342-9.808 58.513-33.013a50.89 50.89 0 0 0 3.378-14.57c.209-.297.217-.7.07-1.04 1.089-17.672-6.846-35.481-21.558-46.102" mask="url(#b)"/>
        </g>
        <path fill="#EE933F" d="M77.572 40.03c.009-.08.023-.033 0 0m-.071.01v-.007l.013.01a.063.063 0 0 1-.013-.003m1.556-1.317c-.372-.493-.87-.786-1.423-.817l.087-1.394c.086-1.354-2.02-1.35-2.106 0l-.254 4.063c-.074 1.166 1.9 1.464 2.068.28.03-.212.136-.515.138-.725 0-.022.002-.03.003-.047.879.517 2.205-.408 1.487-1.36M114.555 23.005c-.877-1.036-2.361.46-1.49 1.49a57.984 57.984 0 0 1 9.885 16.631c.484 1.25 2.521.707 2.03-.56a61.196 61.196 0 0 0-10.425-17.56M127.967 36.911c-.911-3.328-2.526-6.306-4.784-8.911-.89-1.026-2.374.468-1.49 1.488 2.025 2.336 3.428 5.005 4.242 7.983.358 1.306 2.39.752 2.032-.56M7.75 40.567A72.67 72.67 0 0 0 5.536 62.77c.072 1.348 2.18 1.356 2.106 0a70.883 70.883 0 0 1 2.138-21.643c.337-1.314-1.694-1.875-2.032-.56M1.324 49.469L.008 61.095c-.152 1.344 1.956 1.333 2.106 0L3.43 49.469c.152-1.345-1.956-1.334-2.107 0"/>
    </g>
</svg>
