<svg width="730" height="327" viewBox="0 0 730 327" xmlns="http://www.w3.org/2000/svg"><title>62D04D1C-8132-4B18-A576-1825245CD74D</title><path d="M1.669 123.576a664.775 664.775 0 0 0 2.684 123.009c1.57 13.667 3.775 27.772 14.175 39.75 20.567 23.683 66.566 32.454 108.486 36.233 78.415 7.067 158.085 4.237 237.148 1.392 61.829-2.224 123.657-4.447 185.483-6.673 39.987-1.438 79.998-2.878 119.776-5.845 11.533-.859 23.493-1.95 33.187-6.04 20.1-8.482 23.413-26.183 24.475-41.576 5.204-75.575 3.443-151.345-5.27-226.787-.671-5.81-1.468-11.81-5.785-16.94-10.966-13.036-38.437-14.942-61.565-15.244L377.366 1.231C263.328-.259 148.962-1.742 35.457 5.461c-8.565.543-18.011 1.426-23.537 5.651-4.405 3.368-5.184 8.047-5.733 12.426a706.438 706.438 0 0 0-5.045 114.17" fill="#EE933F" fill-rule="evenodd" opacity=".8"/></svg>