<?xml version="1.0" encoding="UTF-8" standalone="no"?>
<svg width="865px" height="270px" viewBox="0 0 865 270" version="1.1" xmlns="http://www.w3.org/2000/svg" xmlns:xlink="http://www.w3.org/1999/xlink" xmlns:sketch="http://www.bohemiancoding.com/sketch/ns">
    <!-- Generator: Sketch 3.3.3 (12072) - http://www.bohemiancoding.com/sketch -->
    <title>logo-bouygues-telecom</title>
    <desc>Created with Sketch.</desc>
    <defs></defs>
    <g id="Page-1" stroke="none" stroke-width="1" fill="#fff" fill-rule="evenodd" sketch:type="MSPage">
        <g id="Logo" sketch:type="MSLayerGroup" transform="translate(2.000000, 2.000000)">
            <g id="Group" sketch:type="MSShapeGroup">
                <g transform="translate(0.000000, 49.000000)" id="Shape" fill="#009DCC">
                    <path d="M52.596,43.22 C46.151,35.804 36.867,33.859 29.229,33.859 C22.201,33.859 14.446,36.948 11.991,39.617 L11.991,5.979 C11.991,2.835 9.444,0.288 6.302,0.288 C3.158,0.288 0.612,2.835 0.612,5.979 L0.597,97.82 C0.597,100.529 2.287,102.843 4.673,103.767 C14.016,107.637 24.458,108.2 29.229,108.2 C36.635,108.2 46.151,106.3 52.596,98.886 C59.032,91.491 59.957,81.136 59.957,71.046 C59.957,60.956 59.032,50.612 52.596,43.22 L52.596,43.22 Z M44.279,91.35 C40.635,95.905 34.978,97.515 29.228,97.515 C24.739,97.515 18.616,96.564 13.531,94.756 L13.535,94.756 C12.724,94.492 12.139,93.732 12.139,92.834 L12.139,57.096 C12.139,53.055 13.842,50.331 15.75,48.538 C18.108,46.325 23.356,44.592 29.228,44.592 C35.1,44.592 40.635,46.2 44.279,50.756 C47.954,55.35 48.391,62.856 48.391,71.048 C48.391,79.24 47.954,86.755 44.279,91.35 L44.279,91.35 Z"></path>
                    <path d="M121.838,43.348 C115.391,35.831 106.085,33.867 98.469,33.859 C90.853,33.851 81.546,35.831 75.101,43.348 C68.667,50.841 67.742,60.723 67.742,70.363 C67.742,80.005 68.667,91.224 75.101,98.719 C81.546,106.234 90.854,108.216 98.469,108.206 C106.084,108.198 115.391,106.234 121.838,98.719 C128.272,91.224 129.197,80.591 129.197,70.363 C129.197,60.135 128.272,50.84 121.838,43.348 L121.838,43.348 Z M113.519,91.078 C109.876,95.695 104.34,97.497 98.469,97.497 C92.598,97.497 87.062,95.695 83.419,91.078 C79.744,86.421 79.306,78.674 79.306,70.362 C79.306,62.05 79.744,55.641 83.419,50.985 C87.062,46.367 92.598,44.579 98.469,44.579 C104.34,44.579 109.876,46.368 113.519,50.985 C117.194,55.642 117.633,62.06 117.633,70.362 C117.633,78.666 117.194,86.421 113.519,91.078 L113.519,91.078 Z"></path>
                    <path d="M192.77,41.146 C192.77,38.046 190.258,35.535 187.16,35.535 C184.061,35.535 181.549,38.046 181.549,41.146 L181.54,93.871 C181.54,94.826 180.841,95.701 180.118,95.997 C179.395,96.293 176.286,97.508 165.693,97.508 C160.38,97.508 154.749,95.386 151.303,90.831 C147.828,86.236 147.409,78.232 147.409,70.041 L147.408,41.146 C147.408,38.046 144.896,35.535 141.798,35.535 C138.699,35.535 136.187,38.046 136.187,41.146 L136.183,70.019 C136.183,80.109 136.82,90.947 143.376,98.881 C149.102,105.811 158.69,108.24 165.694,108.24 C170.138,108.24 179.861,108.548 188.623,105.289 C191.034,104.481 192.755,101.35 192.755,98.668 L192.77,41.146 L192.77,41.146 Z"></path>
                    <path d="M232.574,88.929 C232.259,89.595 231.59,90.02 230.867,90.015 C229.989,90.008 229.353,89.09 229.116,88.75 C227.331,86.195 213.389,47.548 210.366,39.151 C209.311,36.306 206.105,34.834 203.265,35.883 C200.432,36.93 198.953,40.12 199.987,42.964 L218.11,91.028 C220.236,96.712 223.299,99.934 227.793,101.548 L216.777,130.726 C215.686,133.601 217.132,136.816 220.009,137.908 C222.885,139 226.101,137.554 227.192,134.679 L261.9,43.004 C262.953,40.169 261.507,36.976 258.701,35.901 C255.871,34.817 252.635,36.261 251.55,39.112 L232.574,88.929 L232.574,88.929 Z"></path>
                    <path d="M322.1,44.081 C322.1,41.628 320.65,39.516 318.563,38.553 C309.083,34.48 298.331,33.882 293.467,33.882 C286.064,33.882 276.544,35.805 270.1,43.221 C263.666,50.613 262.741,61.92 262.741,72.011 C262.741,82.102 263.666,91.402 270.1,98.796 C276.544,106.211 285.83,108.214 293.467,108.214 C300.496,108.214 308.252,105.063 310.705,102.398 L310.705,112.036 C310.705,117.212 309.47,121.296 306.982,124.165 C304.523,127.008 301.03,128.448 296.603,128.448 C293.68,128.448 290.656,128.065 287.612,127.317 C284.586,126.569 279.454,124.126 277.635,123.25 C275.816,122.375 272.448,123.048 270.919,125.509 C269.39,127.971 270.407,131.646 272.814,132.969 C275.221,134.293 278.278,136.101 284.69,137.755 C288.781,138.81 292.79,139.305 296.602,139.305 C300.785,139.305 304.52,138.632 307.705,137.224 C310.891,135.82 313.578,133.88 315.688,131.46 C317.793,129.052 319.407,126.118 320.485,122.758 C321.557,119.424 322.1,115.811 322.1,112.035 L322.1,44.081 L322.1,44.081 Z M310.558,84.918 C310.558,88.96 308.854,91.682 306.945,93.478 C304.588,95.689 299.34,97.503 293.468,97.503 C287.597,97.503 282.062,95.815 278.419,91.258 C274.743,86.664 274.305,80.201 274.305,72.01 C274.305,63.818 274.743,55.349 278.419,50.755 C282.062,46.199 287.719,44.568 293.468,44.568 C297.927,44.568 303.998,45.535 309.061,47.32 C309.934,47.624 310.559,48.454 310.559,49.43 L310.559,84.918 L310.558,84.918 Z"></path>
                    <path d="M387.394,41.146 C387.394,38.046 384.882,35.535 381.784,35.535 C378.685,35.535 376.173,38.046 376.173,41.146 L376.164,93.871 C376.164,94.826 375.465,95.701 374.742,95.997 C374.019,96.293 370.909,97.508 360.317,97.508 C355.004,97.508 349.373,95.386 345.927,90.831 C342.452,86.236 342.033,78.232 342.033,70.041 L342.032,41.146 C342.032,38.046 339.52,35.535 336.422,35.535 C333.323,35.535 330.811,38.046 330.811,41.146 L330.807,70.019 C330.807,80.109 331.444,90.947 338,98.881 C343.727,105.811 353.314,108.24 360.318,108.24 C364.762,108.24 374.485,108.548 383.247,105.289 C385.658,104.481 387.379,101.35 387.379,98.668 L387.394,41.146 L387.394,41.146 Z"></path>
                    <path d="M450.332,43.22 C442.261,33.76 429.296,33.845 426.643,33.86 C424.188,33.874 411.361,33.936 403.597,43.22 C400.08,47.426 398.686,52.034 397.722,56.1 C396.51,61.214 396.351,65.933 396.351,70.99 C396.351,80.503 397.164,91.447 403.598,98.842 C410.042,106.256 419.351,108.203 426.965,108.203 C435.379,108.203 444.537,107.506 451.274,102.858 C452.585,102.045 453.488,100.722 453.936,99.452 C454.156,98.874 454.276,98.247 454.276,97.592 C454.276,94.7 451.935,92.36 449.046,92.36 C448.372,92.36 447.737,92.507 447.139,92.718 C446.8,92.837 446.372,93.095 445.429,93.597 C440.452,96.38 435.702,97.671 426.966,97.47 C421.095,97.47 415.56,95.862 411.917,91.305 C408.514,87.051 408.001,80.286 407.926,72.802 L451.777,72.802 C455.063,72.802 457.724,70.141 457.724,66.857 C457.722,50.858 450.332,43.22 450.332,43.22 L450.332,43.22 Z M408.212,62.591 C408.188,61.392 408.036,53.032 414.881,47.917 C419.062,44.793 423.63,44.585 426.419,44.585 C429.207,44.585 434.479,44.476 439.11,47.991 C445.956,53.187 446.022,61.43 445.999,62.591 L408.212,62.591 L408.212,62.591 Z"></path>
                    <path d="M502.773,48.858 C503.171,48.96 503.588,49.014 504.018,49.013 C506.803,49.013 509.064,46.748 509.064,43.953 C509.066,43.89 509.061,43.828 509.061,43.765 C509.061,42.138 508.034,39.735 506.053,38.505 C501.168,35.123 493.715,33.855 487.227,33.855 C480.731,33.855 473.862,35.497 469.594,38.734 C465.276,42.013 463.088,46.637 463.088,52.475 C463.088,63.176 471,70.954 486.608,74.176 C493.503,75.621 501.018,79.169 501.018,85.31 C501.018,88.41 499.541,91.78 497.032,93.595 C493.011,96.519 487.2,97.101 484.344,97.122 C480.574,97.154 474.66,96.333 469.676,93.54 C469.461,93.39 469.228,93.264 468.988,93.134 C468.218,92.712 467.336,92.471 466.396,92.471 C463.411,92.471 460.991,94.898 460.991,97.896 C460.991,99.171 461.429,100.343 462.164,101.269 C462.609,101.874 463.166,102.419 463.832,102.835 C470.57,107.5 480.166,108.203 484.529,108.203 C488.65,108.203 492.648,107.35 497.062,105.984 C500.232,105 502.98,103.566 505.238,101.712 C507.492,99.857 509.285,97.587 510.562,94.968 C511.841,92.342 512.753,88.442 512.753,85.31 C512.753,70.956 500.009,65.282 488.886,63.114 C479.437,61.153 474.65,57.097 474.65,52.475 C474.65,51.137 474.982,49.97 475.638,49.001 C476.316,48.013 477.181,47.221 478.222,46.647 C479.29,46.06 480.542,45.626 481.937,45.354 C483.367,45.082 484.958,44.931 487.226,44.94 C490.427,44.953 497.236,46.399 500.175,47.852 C500.999,48.258 501.878,48.637 502.773,48.858 L502.773,48.858 Z"></path>
                </g>
                <g transform="translate(540.000000, 0.000000)">
                    <path d="M189.364,261.521 C212.136,277.248 257.197,251.552 290,204.04 C322.807,156.53 330.938,105.322 308.166,89.596 C285.388,73.869 241.464,98.253 208.657,145.766 C175.854,193.275 166.594,245.794 189.364,261.521 L189.364,261.521 Z" id="Shape" fill="#EA5B0F"></path>
                    <path d="M132.556,261.521 C109.784,277.248 64.723,251.552 31.92,204.04 C-0.887,156.53 -9.018,105.322 13.754,89.596 C36.532,73.869 80.456,98.253 113.263,145.766 C146.066,193.275 155.326,245.794 132.556,261.521 L132.556,261.521 Z" id="Shape" fill="#0055A4"></path>
                    <ellipse id="Oval" fill="#009DCC" cx="160.941" cy="50.106" rx="104.644" ry="50.042"></ellipse>
                </g>
                <g transform="translate(330.000000, 169.000000)" id="Shape" fill="#009DCC">
                    <path d="M8.272,18.266 L6.933,18.266 C6.444,18.266 6.051,17.916 6.051,17.475 L6.051,3.956 L1.691,3.956 C1.203,3.956 0.807,3.602 0.807,3.166 L0.807,1.904 C0.807,1.47 1.203,1.121 1.691,1.121 L13.536,1.121 C14.024,1.121 14.422,1.471 14.422,1.904 L14.422,3.166 C14.422,3.602 14.024,3.956 13.536,3.956 L9.155,3.956 L9.155,17.475 C9.155,17.917 8.758,18.266 8.272,18.266 L8.272,18.266 Z"></path>
                    <path d="M39.88,18.266 L29.203,18.266 C28.715,18.266 28.322,17.916 28.322,17.475 L28.322,1.904 C28.322,1.47 28.716,1.121 29.203,1.121 L39.88,1.121 C40.373,1.121 40.77,1.471 40.77,1.904 L40.77,3.166 C40.77,3.602 40.373,3.956 39.88,3.956 L31.425,3.956 L31.425,8.234 L38.493,8.234 C38.988,8.234 39.378,8.586 39.378,9.011 L39.378,10.214 C39.378,10.644 38.987,10.993 38.493,10.993 L31.425,10.993 L31.425,15.431 L39.88,15.431 C40.373,15.431 40.77,15.781 40.77,16.217 L40.77,17.474 C40.771,17.917 40.373,18.266 39.88,18.266 L39.88,18.266 Z"></path>
                    <path d="M67.628,18.266 L56.951,18.266 C56.458,18.266 56.068,17.916 56.068,17.475 L56.068,1.904 C56.068,1.47 56.458,1.121 56.951,1.121 L58.284,1.121 C58.779,1.121 59.175,1.471 59.175,1.904 L59.175,15.431 L67.629,15.431 C68.117,15.431 68.519,15.781 68.519,16.217 L68.519,17.474 C68.518,17.917 68.117,18.266 67.628,18.266 L67.628,18.266 Z"></path>
                    <path d="M93.053,18.266 L82.378,18.266 C81.89,18.266 81.493,17.916 81.493,17.475 L81.493,1.904 C81.493,1.47 81.889,1.121 82.378,1.121 L93.053,1.121 C93.545,1.121 93.944,1.471 93.944,1.904 L93.944,3.166 C93.944,3.602 93.546,3.956 93.053,3.956 L84.6,3.956 L84.6,8.234 L91.666,8.234 C92.162,8.234 92.553,8.586 92.553,9.011 L92.553,10.214 C92.553,10.644 92.162,10.993 91.666,10.993 L84.6,10.993 L84.6,15.431 L93.053,15.431 C93.545,15.431 93.944,15.781 93.944,16.217 L93.944,17.474 C93.944,17.917 93.545,18.266 93.053,18.266 L93.053,18.266 Z"></path>
                    <path d="M121.243,13.074 L119.862,12.855 C119.45,12.791 119.042,12.996 118.889,13.345 C118.662,14.058 118.315,14.503 117.83,14.923 C117.113,15.562 116.129,15.921 115.072,15.921 C114.013,15.921 113.031,15.562 112.312,14.923 C111.298,14.035 110.894,13.081 110.894,9.712 C110.894,6.344 111.298,5.358 112.312,4.47 C113.031,3.831 114.013,3.472 115.072,3.472 C116.129,3.472 117.113,3.831 117.83,4.47 C118.314,4.89 118.662,5.334 118.889,6.047 C119.041,6.401 119.45,6.599 119.862,6.538 L121.243,6.321 C121.509,6.277 121.731,6.133 121.872,5.926 C122.018,5.725 122.038,5.463 121.952,5.238 C121.63,4.256 121.091,3.453 120.194,2.668 C118.839,1.463 116.958,0.862 115.073,0.862 C113.19,0.862 111.305,1.463 109.948,2.668 C108.016,4.375 107.727,6.148 107.727,9.681 C107.727,13.214 108.016,15.019 109.948,16.718 C111.305,17.925 113.19,18.526 115.073,18.526 C116.958,18.526 118.839,17.924 120.194,16.718 C121.09,15.936 121.63,15.135 121.952,14.153 C122.038,13.926 122.018,13.668 121.872,13.463 C121.731,13.262 121.508,13.119 121.243,13.074 L121.243,13.074 Z"></path>
                    <path d="M147.553,2.654 C146.198,1.451 144.313,0.85 142.43,0.848 C140.549,0.85 138.664,1.451 137.305,2.654 C135.373,4.363 135.084,6.135 135.084,9.668 C135.084,13.205 135.373,14.973 137.305,16.68 C138.672,17.886 140.485,18.544 142.43,18.544 C144.377,18.544 146.188,17.886 147.553,16.68 C149.487,14.973 149.774,13.205 149.774,9.668 C149.774,6.136 149.487,4.363 147.553,2.654 L147.553,2.654 Z M145.186,14.882 C144.473,15.523 143.452,15.842 142.43,15.842 C141.408,15.842 140.389,15.523 139.668,14.882 C138.658,13.985 138.252,13.038 138.252,9.668 C138.252,6.299 138.658,5.345 139.668,4.457 C140.393,3.818 141.371,3.459 142.43,3.459 C143.487,3.459 144.471,3.818 145.186,4.457 C146.204,5.345 146.608,6.299 146.608,9.668 C146.608,13.038 146.204,13.984 145.186,14.882 L145.186,14.882 Z"></path>
                    <path d="M178.192,18.266 L176.856,18.266 C176.366,18.266 175.963,17.916 175.963,17.475 L175.963,9.057 L172.328,17.77 C172.185,18.051 171.859,18.235 171.51,18.235 L170.182,18.235 C169.83,18.235 169.518,18.055 169.371,17.77 L165.629,8.994 L165.629,17.475 C165.629,17.916 165.229,18.266 164.748,18.266 L163.408,18.266 C162.922,18.266 162.525,17.916 162.525,17.475 L162.525,1.904 C162.525,1.47 162.921,1.121 163.408,1.121 L164.748,1.121 C165.086,1.121 165.404,1.298 165.547,1.58 L170.861,14.15 L176.045,1.586 C176.18,1.304 176.504,1.121 176.856,1.121 L178.192,1.121 C178.68,1.121 179.075,1.471 179.075,1.904 L179.075,17.475 C179.075,17.917 178.68,18.266 178.192,18.266 L178.192,18.266 Z"></path>
                </g>
            </g>
        </g>
    </g>
</svg>