<svg width="288" height="263" viewBox="0 0 288 263" xmlns="http://www.w3.org/2000/svg"><title>418D69C9-A450-4A59-BB2E-FB04DB293D76</title><path d="M.658 99.39a1087.621 1087.621 0 0 0 1.06 98.934c.62 10.992 1.489 22.337 5.592 31.97 8.114 19.048 26.261 26.102 42.8 29.141 30.936 5.684 62.367 3.408 93.56 1.12 24.392-1.788 48.785-3.577 73.176-5.367 15.776-1.156 31.561-2.315 47.254-4.701 4.55-.69 9.269-1.569 13.093-4.858 7.93-6.822 9.237-21.058 9.656-33.438a2020.643 2020.643 0 0 0-2.08-182.401c-.264-4.672-.578-9.499-2.281-13.624C278.16 5.68 267.323 4.148 258.199 3.905L148.88.99c-44.99-1.198-90.11-2.39-134.89 3.402-3.38.437-7.106 1.147-9.286 4.545-1.738 2.709-2.046 6.472-2.262 9.994a1154.293 1154.293 0 0 0-1.99 91.824" fill="#EE933F" fill-rule="evenodd" opacity=".8"/></svg>